<?xml version="1.0" encoding="UTF-8"?>
<svg version="1.1" xmlns="http://www.w3.org/2000/svg" width="128" height="128">
<path d="M0 0 C2.05000871 0.80528889 2.05000871 0.80528889 4 1 C4.99 0.34 5.98 -0.32 7 -1 C13.19230769 -0.77884615 13.19230769 -0.77884615 15.75 1.6875 C16.67152727 3.39232546 17.53886169 5.12671081 18.375 6.875 C19.87171882 9.75330543 21.57019804 11.82783109 23.6875 14.25390625 C25.78248484 17.0409843 27.12482685 20.15786128 28.609375 23.30078125 C30.0848422 26.16467967 31.80186959 28.7207366 33.625 31.375 C38.39848855 38.75882761 40.33857723 45.99356075 39.625 54.75 C39.4956044 58.22377429 39.55280744 59.48110568 41.8515625 62.1484375 C43.45507229 63.46989671 45.08336941 64.76182002 46.734375 66.0234375 C51.25852753 69.97037057 52.58561798 75.34247193 54 81 C59.445 81.99 59.445 81.99 65 83 C62.46512701 93.13949196 51.43486672 100.62963515 43 106 C28.06079448 114.37963613 13.94966275 118.99036875 -3 115 C-7.12204807 113.81897329 -11.18510773 112.4884115 -15.25 111.125 C-16.82394531 110.61646484 -16.82394531 110.61646484 -18.4296875 110.09765625 C-23.85642138 108.29103472 -28.37146631 106.44576215 -33 103 C-35.01004084 101.77379748 -37.03089227 100.56512892 -39.0625 99.375 C-40.56490234 98.48941406 -40.56490234 98.48941406 -42.09765625 97.5859375 C-44.69071473 96.16900379 -47.23302589 95.02555738 -50 94 C-48.56587237 89.69761711 -45.31827868 88.56334703 -41.5625 86.4375 C-40.18731208 85.64711808 -38.81354897 84.85425056 -37.44140625 84.05859375 C-36.82982666 83.71111084 -36.21824707 83.36362793 -35.58813477 83.00561523 C-33.82325525 81.96934029 -33.82325525 81.96934029 -32 80 C-32.33 79.505 -32.66 79.01 -33 78.5 C-34.43636358 74.90909106 -34.12851462 71.85543873 -34 68 C-37.3 67.34 -40.6 66.68 -44 66 C-43.34 63.69 -42.68 61.38 -42 59 C-40.02 58.505 -40.02 58.505 -38 58 C-38.66 58 -39.32 58 -40 58 C-41.125 53.25 -41.125 53.25 -40 51 C-39.21625 51.20625 -38.4325 51.4125 -37.625 51.625 C-36.75875 51.74875 -35.8925 51.8725 -35 52 C-34.34 51.34 -33.68 50.68 -33 50 C-28.60370982 50.23763731 -26.22741144 52.14143559 -23 55 C-19.72474189 53.94035767 -17.38618531 52.60721355 -14.8125 50.375 C-12 48 -12 48 -10 48 C-10.33 47.01 -10.66 46.02 -11 45 C-10.34 45 -9.68 45 -9 45 C-7.22835081 37.47049095 -8.90339072 31.03013998 -12 24 C-13.96732308 21.76630046 -13.96732308 21.76630046 -16 20 C-17.5 17.75 -17.5 17.75 -18 15 C-16.06490937 9.00501334 -11.98721369 2.33376069 -7 -1.5625 C-4.15480094 -2.18488729 -2.59071236 -1.23058837 0 0 Z " fill="#735641" transform="translate(56,8)"/>
<path d="M0 0 C0.33 1.32 0.66 2.64 1 4 C-0.06541016 4.18175781 -0.06541016 4.18175781 -1.15234375 4.3671875 C-2.07144531 4.53476562 -2.99054687 4.70234375 -3.9375 4.875 C-4.85402344 5.03742187 -5.77054688 5.19984375 -6.71484375 5.3671875 C-7.46894531 5.57601563 -8.22304688 5.78484375 -9 6 C-9.33 6.66 -9.66 7.32 -10 8 C-8.845 8.020625 -7.69 8.04125 -6.5 8.0625 C-1.65424227 8.62096499 0.79208409 11.0300352 4.140625 14.40625 C6.12672479 16.10862125 7.44689625 16.59331091 10 17 C10 16.34 10 15.68 10 15 C10.99 15 11.98 15 13 15 C13.99 16.98 14.98 18.96 16 21 C16.66 21 17.32 21 18 21 C18.99 19.02 19.98 17.04 21 15 C21.28875 15.598125 21.5775 16.19625 21.875 16.8125 C23.04742026 19.19327792 23.04742026 19.19327792 25 22 C25 22.99 25 23.98 25 25 C25.66 25 26.32 25 27 25 C27.33 24.34 27.66 23.68 28 23 C34.67559045 28.93385818 37.90222311 36.16148862 39 45 C39.14278697 48.67438475 39.12362947 52.32545741 39 56 C38.67 56 38.34 56 38 56 C37.67 52.7 37.34 49.4 37 46 C36.01 45.67 35.02 45.34 34 45 C34 45.66 34 46.32 34 47 C34.66 47 35.32 47 36 47 C36 49.31 36 51.62 36 54 C35.01 53.67 34.02 53.34 33 53 C32.9071875 54.4540625 32.9071875 54.4540625 32.8125 55.9375 C31.29060953 66.04285273 23.36491796 74.26012103 15.98828125 80.77734375 C12.67300375 82.81601145 9.81665061 82.19083253 6 82 C5.773125 82.61875 5.54625 83.2375 5.3125 83.875 C3.62070165 86.61410209 2.00755839 87.05024472 -1 88 C-1 87.34 -1 86.68 -1 86 C-0.195625 85.525625 0.60875 85.05125 1.4375 84.5625 C4.2918076 83.20016328 4.2918076 83.20016328 5 80 C1.7 80 -1.6 80 -5 80 C-5 79.34 -5 78.68 -5 78 C-2.02148438 78.09765625 -2.02148438 78.09765625 0.95703125 78.1953125 C3.31359719 78.13254462 3.31359719 78.13254462 6 76 C4.948125 75.835 3.89625 75.67 2.8125 75.5 C-0.4631755 74.54514722 -1.91089686 73.32393759 -3.8125 70.5 C-9.3425379 60.37072267 -8.07125384 49.948056 -6 39 C-5.01 39 -4.02 39 -3 39 C-3.99 37.68 -4.98 36.36 -6 35 C-5.67 34.34 -5.34 33.68 -5 33 C-4.89024923 31.79323739 -4.89024923 31.79323739 -6.3125 30.5 C-7.93580507 28.0951036 -8.60645738 26.30676711 -9.4375 23.5625 C-10.64346872 19.67517529 -12.18418904 17.01000481 -15 14 C-7.99995111 14.28688725 -3.08973134 15.50404312 3 19 C-3.188579 15.08355629 -8.7452991 13.01474939 -16 12 C-15.25075609 7.13805855 -13.80748876 5.20175192 -10 2 C-6.5464886 0.18690652 -3.87920484 -0.22166885 0 0 Z " fill="#94623C" transform="translate(57,12)"/>
<path d="M0 0 C2.05000871 0.80528889 2.05000871 0.80528889 4 1 C4.99 0.34 5.98 -0.32 7 -1 C13.19230769 -0.77884615 13.19230769 -0.77884615 15.75 1.6875 C16.67152727 3.39232546 17.53886169 5.12671081 18.375 6.875 C19.86561542 9.74156811 21.55155416 11.80641616 23.66015625 14.22265625 C26.84635697 18.44924904 30 23.648603 30 29 C28.68 29 27.36 29 26 29 C24.68 26.36 23.36 23.72 22 21 C21.01 22.65 20.02 24.3 19 26 C17.0625 25.3125 17.0625 25.3125 15 24 C14.25 21.375 14.25 21.375 14 19 C13.01 19 12.02 19 11 19 C11 19.66 11 20.32 11 21 C7.19309485 20.76927848 5.37097748 19.59210836 2.6875 17.0625 C-1.00664312 13.66942141 -4.10345443 12.85904308 -9 12 C-8.67 11.01 -8.34 10.02 -8 9 C-6.329375 8.87625 -6.329375 8.87625 -4.625 8.75 C-3.42875 8.5025 -2.2325 8.255 -1 8 C0.26009792 6.02257219 0.26009792 6.02257219 1 4 C-0.60433809 4.47859241 -2.20846416 4.95789558 -3.8125 5.4375 C-4.70582031 5.70433594 -5.59914062 5.97117187 -6.51953125 6.24609375 C-10.43336619 7.15216894 -10.43336619 7.15216894 -13.125 9.8125 C-13.94665489 11.86663723 -14.48680589 13.8526878 -15 16 C-14.42894531 15.99097656 -13.85789063 15.98195313 -13.26953125 15.97265625 C-6.06173803 16.23621626 -1.12930198 18.7514015 5.01953125 22.40625 C7.78669802 23.88594075 9.91478921 24.58939893 13 25 C13 25.33 13 25.66 13 26 C8.22233266 26.32877067 5.71608369 25.59901566 1.6875 23.0625 C-3.40567904 20.09729302 -7.14189874 19.19206889 -13 19 C-12.01 19.66 -11.02 20.32 -10 21 C-8.90434785 23.32826083 -7.92628704 25.60709181 -7 28 C-5.34384539 32.07138009 -3.83806762 35.62134807 -1 39 C-1.99 39 -2.98 39 -4 39 C-3.01 40.32 -2.02 41.64 -1 43 C-1.495 43.99 -1.495 43.99 -2 45 C-2.99 44.34 -3.98 43.68 -5 43 C-6.79528351 60.42288187 -6.79528351 60.42288187 0 76 C0 76.66 0 77.32 0 78 C1.7015625 78.185625 1.7015625 78.185625 3.4375 78.375 C5.2009375 78.684375 5.2009375 78.684375 7 79 C7.33 79.66 7.66 80.32 8 81 C4.59659693 83.09440189 1.95562822 83.25797575 -2 83 C-2.99 82.505 -2.99 82.505 -4 82 C-4 82.66 -4 83.32 -4 84 C-0.7 84 2.6 84 6 84 C5 88 5 88 3 90 C2.01 90 1.02 90 0 90 C0 90.66 0 91.32 0 92 C0.99 91.67 1.98 91.34 3 91 C3 91.66 3 92.32 3 93 C3.66 93 4.32 93 5 93 C5 93.66 5 94.32 5 95 C5.68707031 94.97679688 6.37414063 94.95359375 7.08203125 94.9296875 C7.98308594 94.91164063 8.88414063 94.89359375 9.8125 94.875 C10.70582031 94.85179688 11.59914062 94.82859375 12.51953125 94.8046875 C15 95 15 95 18 97 C15.6430775 98.46967454 14.4012085 99.04044704 11.59765625 98.7578125 C10.76105469 98.54898438 9.92445312 98.34015625 9.0625 98.125 C5.58971544 97.27693206 2.56847467 96.98758791 -1 97 C-1.33 96.67 -1.66 96.34 -2 96 C-4.67058851 95.85884839 -7.32432238 95.95752893 -10 96 C-10 95.67 -10 95.34 -10 95 C-18.66170574 93.14520646 -27.17358581 92.45263663 -36 92 C-36 92.66 -36 93.32 -36 94 C-37.65 94 -39.3 94 -41 94 C-40.38511719 94.32613281 -39.77023438 94.65226562 -39.13671875 94.98828125 C-38.32847656 95.42527344 -37.52023438 95.86226563 -36.6875 96.3125 C-35.48673828 96.95638672 -35.48673828 96.95638672 -34.26171875 97.61328125 C-32.14147319 98.9132591 -30.74038963 100.25494445 -29 102 C-22.74461917 105.66200419 -16.10234187 106.99106919 -9 108 C-9 108.66 -9 109.32 -9 110 C-7.68 110.66 -6.36 111.32 -5 112 C-10.27848405 112.2451941 -14.61706274 111.48115613 -19.5625 109.75 C-20.19607422 109.54503906 -20.82964844 109.34007813 -21.48242188 109.12890625 C-25.8266177 107.65250602 -29.26594802 105.63285703 -33 103 C-35.01004084 101.77379748 -37.03089227 100.56512892 -39.0625 99.375 C-40.56490234 98.48941406 -40.56490234 98.48941406 -42.09765625 97.5859375 C-44.69071473 96.16900379 -47.23302589 95.02555738 -50 94 C-48.56587237 89.69761711 -45.31827868 88.56334703 -41.5625 86.4375 C-40.18731208 85.64711808 -38.81354897 84.85425056 -37.44140625 84.05859375 C-36.82982666 83.71111084 -36.21824707 83.36362793 -35.58813477 83.00561523 C-33.82325525 81.96934029 -33.82325525 81.96934029 -32 80 C-32.33 79.505 -32.66 79.01 -33 78.5 C-34.43636358 74.90909106 -34.12851462 71.85543873 -34 68 C-37.3 67.34 -40.6 66.68 -44 66 C-43.34 63.69 -42.68 61.38 -42 59 C-40.02 58.505 -40.02 58.505 -38 58 C-38.66 58 -39.32 58 -40 58 C-41.125 53.25 -41.125 53.25 -40 51 C-39.21625 51.20625 -38.4325 51.4125 -37.625 51.625 C-36.75875 51.74875 -35.8925 51.8725 -35 52 C-34.34 51.34 -33.68 50.68 -33 50 C-28.60370982 50.23763731 -26.22741144 52.14143559 -23 55 C-19.72474189 53.94035767 -17.38618531 52.60721355 -14.8125 50.375 C-12 48 -12 48 -10 48 C-10.33 47.01 -10.66 46.02 -11 45 C-10.34 45 -9.68 45 -9 45 C-7.22835081 37.47049095 -8.90339072 31.03013998 -12 24 C-13.96732308 21.76630046 -13.96732308 21.76630046 -16 20 C-17.5 17.75 -17.5 17.75 -18 15 C-16.06490937 9.00501334 -11.98721369 2.33376069 -7 -1.5625 C-4.15480094 -2.18488729 -2.59071236 -1.23058837 0 0 Z " fill="#8B603F" transform="translate(56,8)"/>
<path d="M0 0 C2.05000871 0.80528889 2.05000871 0.80528889 4 1 C4.99 0.34 5.98 -0.32 7 -1 C13.19230769 -0.77884615 13.19230769 -0.77884615 15.75 1.6875 C16.67152727 3.39232546 17.53886169 5.12671081 18.375 6.875 C19.86561542 9.74156811 21.55155416 11.80641616 23.66015625 14.22265625 C26.84635697 18.44924904 30 23.648603 30 29 C28.68 29 27.36 29 26 29 C24.68 26.36 23.36 23.72 22 21 C21.01 22.65 20.02 24.3 19 26 C17.0625 25.3125 17.0625 25.3125 15 24 C14.25 21.375 14.25 21.375 14 19 C13.01 19 12.02 19 11 19 C11 19.66 11 20.32 11 21 C7.19309485 20.76927848 5.37097748 19.59210836 2.6875 17.0625 C-1.00664312 13.66942141 -4.10345443 12.85904308 -9 12 C-8.67 11.01 -8.34 10.02 -8 9 C-6.329375 8.87625 -6.329375 8.87625 -4.625 8.75 C-3.42875 8.5025 -2.2325 8.255 -1 8 C0.26009792 6.02257219 0.26009792 6.02257219 1 4 C-0.60433809 4.47859241 -2.20846416 4.95789558 -3.8125 5.4375 C-4.70582031 5.70433594 -5.59914062 5.97117187 -6.51953125 6.24609375 C-10.43336619 7.15216894 -10.43336619 7.15216894 -13.125 9.8125 C-13.94665489 11.86663723 -14.48680589 13.8526878 -15 16 C-14.42894531 15.99097656 -13.85789062 15.98195313 -13.26953125 15.97265625 C-6.06173803 16.23621626 -1.12930198 18.7514015 5.01953125 22.40625 C7.78669802 23.88594075 9.91478921 24.58939893 13 25 C13 25.33 13 25.66 13 26 C8.22233266 26.32877067 5.71608369 25.59901566 1.6875 23.0625 C-3.40567904 20.09729302 -7.14189874 19.19206889 -13 19 C-11.515 19.99 -11.515 19.99 -10 21 C-8.90434785 23.32826083 -7.92628704 25.60709181 -7 28 C-5.34384539 32.07138009 -3.83806762 35.62134807 -1 39 C-1.99 39 -2.98 39 -4 39 C-3.01 40.32 -2.02 41.64 -1 43 C-1.495 43.99 -1.495 43.99 -2 45 C-2.99 44.67 -3.98 44.34 -5 44 C-5.99 47.63 -6.98 51.26 -8 55 C-9.98 55.495 -9.98 55.495 -12 56 C-11.67 56.99 -11.34 57.98 -11 59 C-11.59167969 59.18175781 -12.18335937 59.36351562 -12.79296875 59.55078125 C-13.58316406 59.80214844 -14.37335937 60.05351563 -15.1875 60.3125 C-15.96480469 60.55613281 -16.74210937 60.79976562 -17.54296875 61.05078125 C-20.07138907 61.92251486 -20.07138907 61.92251486 -22.3203125 63.56640625 C-25.84180052 65.45035101 -28.71511627 65.47715418 -32.6875 65.625 C-37.49052624 65.63437276 -37.49052624 65.63437276 -42 67 C-42.66 66.34 -43.32 65.68 -44 65 C-43.25 62.0625 -43.25 62.0625 -42 59 C-39.875 58.125 -39.875 58.125 -38 58 C-38.66 58 -39.32 58 -40 58 C-41.125 53.25 -41.125 53.25 -40 51 C-39.21625 51.20625 -38.4325 51.4125 -37.625 51.625 C-36.75875 51.74875 -35.8925 51.8725 -35 52 C-34.34 51.34 -33.68 50.68 -33 50 C-28.60370982 50.23763731 -26.22741144 52.14143559 -23 55 C-19.72474189 53.94035767 -17.38618531 52.60721355 -14.8125 50.375 C-12 48 -12 48 -10 48 C-10.33 47.01 -10.66 46.02 -11 45 C-10.34 45 -9.68 45 -9 45 C-7.22835081 37.47049095 -8.90339072 31.03013998 -12 24 C-13.96732308 21.76630046 -13.96732308 21.76630046 -16 20 C-17.5 17.75 -17.5 17.75 -18 15 C-16.06490937 9.00501334 -11.98721369 2.33376069 -7 -1.5625 C-4.15480094 -2.18488729 -2.59071236 -1.23058837 0 0 Z " fill="#726B63" transform="translate(56,8)"/>
<path d="M0 0 C11.49824782 -0.29357228 22.7994807 0.08885181 34 3 C35.051875 3.144375 36.10375 3.28875 37.1875 3.4375 C44.44570991 4.50838343 50.09959798 5.46122922 56 10 C56.66 9.67 57.32 9.34 58 9 C60.6015625 9.77734375 60.6015625 9.77734375 63.625 10.9375 C64.62789063 11.31777344 65.63078125 11.69804688 66.6640625 12.08984375 C67.43492188 12.39019531 68.20578125 12.69054687 69 13 C69 13.99 69 14.98 69 16 C58.78054059 20.13972123 49.81038095 21.62980658 38.82421875 21.859375 C35.19803989 21.72846185 35.19803989 21.72846185 33 23 C30.98072489 22.39421747 28.97746603 21.73080266 27 21 C27.66 20.34 28.32 19.68 29 19 C23.96221369 16.84775103 18.76593481 15.56615069 13.47265625 14.1953125 C9.79485075 12.9293862 7.06384125 11.38558632 4 9 C4 8.34 4 7.68 4 7 C2.948125 6.5978125 2.948125 6.5978125 1.875 6.1875 C-1.1649824 4.9318551 -4.0727774 3.49764877 -7 2 C-3.98968256 1.06576355 -3.13349732 0.95550089 0 2 C0 1.34 0 0.68 0 0 Z " fill="#A9784C" transform="translate(20,100)"/>
<path d="M0 0 C9.05417435 -0.14306822 15.34680595 3.50971135 23 8 C25.08033416 9.29246606 25.08033416 9.29246606 27 10 C27.99 9.67 28.98 9.34 30 9 C30 9.66 30 10.32 30 11 C30.99 11 31.98 11 33 11 C32.8125 12.875 32.8125 12.875 32 15 C29.5 16.125 29.5 16.125 27 17 C25.01515962 20.96968076 25.66092307 25.7002051 26.75 29.875 C28.23954094 32.4072196 29.37581048 32.80718658 32 34 C35 37.42857143 35 37.42857143 35 40 C35.66 40 36.32 40 37 40 C36.67 41.32 36.34 42.64 36 44 C35.34 44 34.68 44 34 44 C33.91363281 44.56847656 33.82726562 45.13695312 33.73828125 45.72265625 C32.65388869 51.68184105 30.80483365 55.29402154 27 60 C25.68 59.67 24.36 59.34 23 59 C23.46019531 58.58105469 23.92039062 58.16210938 24.39453125 57.73046875 C27.88985893 53.96299877 29.1739277 48.868032 29.375 43.8125 C28.8535554 38.51114652 27.00544479 36.25680599 23.75 32.1875 C21.10180085 29.73453011 21.10180085 29.73453011 17.4375 29.3125 C13.87474924 29.70769756 13.87474924 29.70769756 11.5625 32.3125 C9.06174766 36.90262551 9.27341237 41.94881868 10 47 C10.87250476 49.50845118 11.88338803 51.77973294 13.125 54.125 C14 56 14 56 14 59 C8.14847608 52.1732221 7.05243065 45.83980791 7 37 C7.4542765 32.9482207 8.14498602 28.98535442 9 25 C9.99 25 10.98 25 12 25 C11.01 23.68 10.02 22.36 9 21 C9.33 20.34 9.66 19.68 10 19 C10.10975077 17.79323739 10.10975077 17.79323739 8.6875 16.5 C7.06419493 14.0951036 6.39354262 12.30676711 5.5625 9.5625 C4.35653128 5.67517529 2.81581096 3.01000481 0 0 Z " fill="#C2C4B8" transform="translate(42,26)"/>
<path d="M0 0 C3.75 0.375 3.75 0.375 6.4375 2.5 C7.200625 3.44875 7.96375 4.3975 8.75 5.375 C9.513125 6.303125 10.27625 7.23125 11.0625 8.1875 C13.51046882 12.8114411 13.47457657 16.63825471 12.171875 21.55859375 C10.89233906 25.26788677 9.68560798 27.70252775 6.75 30.375 C7.74 30.375 8.73 30.375 9.75 30.375 C11.11176581 28.39424973 12.44593116 26.39420337 13.75 24.375 C14.41 24.375 15.07 24.375 15.75 24.375 C16.08 23.715 16.41 23.055 16.75 22.375 C17.08 23.695 17.41 25.015 17.75 26.375 C17.09 26.375 16.43 26.375 15.75 26.375 C15.75 27.035 15.75 27.695 15.75 28.375 C17.07 28.045 18.39 27.715 19.75 27.375 C19.09 28.365 18.43 29.355 17.75 30.375 C16.43 30.045 15.11 29.715 13.75 29.375 C13.853125 30.303125 13.95625 31.23125 14.0625 32.1875 C13.959375 33.239375 13.85625 34.29125 13.75 35.375 C11.42516912 37.24778043 9.62710193 38.21552692 6.6875 38.75 C4.45413459 39.27386437 4.45413459 39.27386437 2.75 41.875 C0.75 44.375 0.75 44.375 -1.5 45.1875 C-2.0775 45.249375 -2.655 45.31125 -3.25 45.375 C-3.25 44.715 -3.25 44.055 -3.25 43.375 C-2.445625 42.900625 -1.64125 42.42625 -0.8125 41.9375 C2.0418076 40.57516328 2.0418076 40.57516328 2.75 37.375 C-0.55 37.375 -3.85 37.375 -7.25 37.375 C-7.25 36.715 -7.25 36.055 -7.25 35.375 C-5.26432292 35.44010417 -3.27864583 35.50520833 -1.29296875 35.5703125 C1.06359719 35.50754462 1.06359719 35.50754462 3.75 33.375 C1.44 32.715 -0.87 32.055 -3.25 31.375 C-3.37246094 30.79878906 -3.49492188 30.22257812 -3.62109375 29.62890625 C-4.26900283 27.3068967 -5.19991182 25.44595762 -6.3125 23.3125 C-8.69348662 18.02723301 -9.16079829 13.09622812 -8.25 7.375 C-6.42920314 3.20268074 -4.58009969 0.52847304 0 0 Z " fill="#B27141" transform="translate(59.25,54.625)"/>
<path d="M0 0 C0.495 0.99 0.495 0.99 1 2 C2.97888961 2.72693904 4.97954558 3.39816251 7 4 C6.67 4.66 6.34 5.32 6 6 C5.01 5.67 4.02 5.34 3 5 C2.01 8.63 1.02 12.26 0 16 C-1.32 16.33 -2.64 16.66 -4 17 C-3.505 18.485 -3.505 18.485 -3 20 C-3.59167969 20.18175781 -4.18335937 20.36351563 -4.79296875 20.55078125 C-5.58316406 20.80214844 -6.37335937 21.05351563 -7.1875 21.3125 C-8.35345703 21.67794922 -8.35345703 21.67794922 -9.54296875 22.05078125 C-12.07138907 22.92251486 -12.07138907 22.92251486 -14.3203125 24.56640625 C-17.84180052 26.45035101 -20.71511627 26.47715418 -24.6875 26.625 C-29.49052624 26.63437276 -29.49052624 26.63437276 -34 28 C-34.66 27.34 -35.32 26.68 -36 26 C-35.25 23.0625 -35.25 23.0625 -34 20 C-31.875 19.125 -31.875 19.125 -30 19 C-30.66 19 -31.32 19 -32 19 C-33.125 14.25 -33.125 14.25 -32 12 C-31.21625 12.20625 -30.4325 12.4125 -29.625 12.625 C-28.75875 12.74875 -27.8925 12.8725 -27 13 C-26.34 12.34 -25.68 11.68 -25 11 C-20.60370982 11.23763731 -18.22741144 13.14143559 -15 16 C-11.72474189 14.94035767 -9.38618531 13.60721355 -6.8125 11.375 C-4 9 -4 9 -2 9 C-2.495 7.515 -2.495 7.515 -3 6 C-2.34 6 -1.68 6 -1 6 C-0.67 4.02 -0.34 2.04 0 0 Z " fill="#997D63" transform="translate(48,47)"/>
<path d="M0 0 C4.89505956 0.45535438 7.55083353 1.46006599 11 5 C13.45604957 8.61228214 15.26743669 11.46223903 14.5 15.875 C12.85490633 18.20554937 11.65321782 19.02715347 9 20 C9 19.34 9 18.68 9 18 C7.68 18.33 6.36 18.66 5 19 C4.67 20.65 4.34 22.3 4 24 C3.67 23.34 3.34 22.68 3 22 C2.67 22.99 2.34 23.98 2 25 C1.34 25 0.68 25 0 25 C0 24.34 0 23.68 0 23 C-3.96 22.67 -7.92 22.34 -12 22 C-11 17 -11 17 -9.0625 15.25 C-4.78323676 13.50336194 -0.58488569 13.25817803 4 13 C-0.455 12.01 -0.455 12.01 -5 11 C-4.46884894 6.48521602 -2.63379708 3.65333143 0 0 Z " fill="#C88953" transform="translate(91,71)"/>
<path d="M0 0 C2.4375 0.8125 2.4375 0.8125 4.4375 3.8125 C4.75424455 5.2825196 5.02190803 6.76364245 5.25 8.25 C5.97452858 11.86675245 6.29285351 12.67129747 9.0625 15.375 C9.84625 15.849375 10.63 16.32375 11.4375 16.8125 C10.89026317 20.18712715 10.3826 21.89485 8.4375 24.8125 C6.5 24.125 6.5 24.125 4.4375 22.8125 C3.6875 20.1875 3.6875 20.1875 3.4375 17.8125 C2.4475 17.8125 1.4575 17.8125 0.4375 17.8125 C0.4375 18.4725 0.4375 19.1325 0.4375 19.8125 C-3.36940515 19.58177848 -5.19152252 18.40460836 -7.875 15.875 C-11.56914312 12.48192141 -14.66595443 11.67154308 -19.5625 10.8125 C-19.2325 9.8225 -18.9025 8.8325 -18.5625 7.8125 C-17.428125 7.68875 -16.29375 7.565 -15.125 7.4375 C-13.3615625 7.128125 -13.3615625 7.128125 -11.5625 6.8125 C-11.2325 6.1525 -10.9025 5.4925 -10.5625 4.8125 C-8.91916496 3.77460419 -7.25006133 2.77682076 -5.5625 1.8125 C-2.5625 -0.1875 -2.5625 -0.1875 0 0 Z " fill="#855D3F" transform="translate(66.5625,9.1875)"/>
<path d="M0 0 C0.66 0 1.32 0 2 0 C2.3403125 0.9590625 2.3403125 0.9590625 2.6875 1.9375 C3.83446488 4.24550302 3.83446488 4.24550302 6.4375 4.6875 C7.283125 4.790625 8.12875 4.89375 9 5 C9.99 5.33 10.98 5.66 12 6 C12 7.65 12 9.3 12 11 C8.62496331 9.8141763 6.35277269 8.72426311 4 6 C3.49246656 8.20152247 3.49246656 8.20152247 4 11 C5.39582241 12.89125321 6.94056838 14.57129015 8.53125 16.30078125 C11.53105065 19.7712953 12 22.48449636 12 27 C11.34 27 10.68 27 10 27 C10 27.66 10 28.32 10 29 C7.69 29.99 5.38 30.98 3 32 C3.433125 30.9790625 3.433125 30.9790625 3.875 29.9375 C4.02507735 26.4106822 3.48672247 26.06770608 1.1875 23.5625 C0.63191406 22.9746875 0.07632813 22.386875 -0.49609375 21.78125 C-2.50157716 19.4059242 -3.27017848 16.99226823 -4 14 C-4.66 14.66 -5.32 15.32 -6 16 C-8.31332486 12.53001271 -8.33957563 11.07490752 -8 7 C-7.34 6.01 -6.68 5.02 -6 4 C-5.01 4 -4.02 4 -3 4 C-3 4.66 -3 5.32 -3 6 C-2.01 5.67 -1.02 5.34 0 5 C-0.66 4.34 -1.32 3.68 -2 3 C-1.34 2.01 -0.68 1.02 0 0 Z " fill="#C88C56" transform="translate(76,39)"/>
<path d="M0 0 C2.8848274 1.17530005 4.2379658 2.26301483 6.375 4.625 C8.80696526 7.3113851 8.80696526 7.3113851 12.1875 7.25 C13.115625 7.1675 14.04375 7.085 15 7 C15.66 7.33 16.32 7.66 17 8 C17 8.99 17 9.98 17 11 C18.98 10.67 20.96 10.34 23 10 C23 10.66 23 11.32 23 12 C25.31 12.33 27.62 12.66 30 13 C30 13.66 30 14.32 30 15 C28.02090602 15.02686553 26.04171029 15.04633375 24.0625 15.0625 C22.96035156 15.07410156 21.85820313 15.08570312 20.72265625 15.09765625 C18 15 18 15 17 14 C15.56841148 13.68057863 14.1294079 13.39403028 12.6875 13.125 C9.16680949 12.36816366 6.5183534 11.73734065 4 9 C4 8.01 4 7.02 4 6 C1.34781758 7.25881488 -1.29623869 8.53114044 -3.9375 9.8125 C-5.06961914 10.34713867 -5.06961914 10.34713867 -6.22460938 10.89257812 C-6.94326172 11.24384766 -7.66191406 11.59511719 -8.40234375 11.95703125 C-9.06741943 12.27647705 -9.73249512 12.59592285 -10.41772461 12.92504883 C-12.3351384 13.99372259 -12.3351384 13.99372259 -13 17 C-12.319375 17.0825 -11.63875 17.165 -10.9375 17.25 C-6.64708851 18.34542421 -2.66865501 20.2822669 0.4609375 23.50390625 C6.02012713 28.90789008 14.65845374 29.95708876 22 31 C22 31.66 22 32.32 22 33 C23.32 33.66 24.64 34.32 26 35 C20.72151595 35.2451941 16.38293726 34.48115613 11.4375 32.75 C10.80392578 32.54503906 10.17035156 32.34007812 9.51757812 32.12890625 C5.1733823 30.65250602 1.73405198 28.63285703 -2 26 C-4.01004084 24.77379748 -6.03089227 23.56512892 -8.0625 22.375 C-9.06410156 21.78460938 -10.06570313 21.19421875 -11.09765625 20.5859375 C-13.69071473 19.16900379 -16.23302589 18.02555738 -19 17 C-17.57388805 12.72166414 -14.40395725 11.53047567 -10.6875 9.375 C-10.01009766 8.96765625 -9.33269531 8.5603125 -8.63476562 8.140625 C-5.42128579 6.24332117 -2.67774338 4.78305898 1 4 C0.67 2.68 0.34 1.36 0 0 Z " fill="#5A5550" transform="translate(25,85)"/>
<path d="M0 0 C8.6274658 -0.20705918 16.59628191 -0.21462689 25 2 C24.67 2.66 24.34 3.32 24 4 C26.31 4.33 28.62 4.66 31 5 C31 5.99 31 6.98 31 8 C28.81716075 8.84770456 26.63003921 9.67807547 24.4375 10.5 C23.21933594 10.9640625 22.00117187 11.428125 20.74609375 11.90625 C15.29618861 13.49746318 11.59846883 13.87189209 6.5625 11.125 C5.716875 10.42375 4.87125 9.7225 4 9 C4 8.34 4 7.68 4 7 C2.948125 6.5978125 2.948125 6.5978125 1.875 6.1875 C-1.1649824 4.9318551 -4.0727774 3.49764877 -7 2 C-3.98968256 1.06576355 -3.13349732 0.95550089 0 2 C0 1.34 0 0.68 0 0 Z " fill="#DC9B5D" transform="translate(20,100)"/>
<path d="M0 0 C0.33 0 0.66 0 1 0 C0.85691406 1.55847656 0.85691406 1.55847656 0.7109375 3.1484375 C-0.18234191 13.88583643 -0.7377719 23.01630413 6 32 C6 32.66 6 33.32 6 34 C7.7015625 34.185625 7.7015625 34.185625 9.4375 34.375 C10.613125 34.58125 11.78875 34.7875 13 35 C13.33 35.66 13.66 36.32 14 37 C11.22462634 37.96534736 9.86117215 38.38830194 7 38 C4.32732779 36.18891291 1.98851198 34.13114341 -0.4453125 32.01171875 C-5.57012873 27.97612187 -11.62494553 26.81731468 -18 26 C-18 25.67 -18 25.34 -18 25 C-12.39 25.33 -6.78 25.66 -1 26 C-1 24.35 -1 22.7 -1 21 C-5.95 21 -10.9 21 -16 21 C-16 21.66 -16 22.32 -16 23 C-18.97 23.33 -21.94 23.66 -25 24 C-25 26.31 -25 28.62 -25 31 C-25.66 30.67 -26.32 30.34 -27 30 C-27.625 26.9375 -27.625 26.9375 -28 24 C-30.31 23.67 -32.62 23.34 -35 23 C-34.67 22.34 -34.34 21.68 -34 21 C-30.89614303 20.70096988 -27.83780925 20.5845077 -24.72265625 20.52148438 C-20.30551477 20.34358379 -17.58505764 19.57757794 -14 17 C-10.84157603 15.12468577 -8.67148645 14.79602853 -5 15 C-5 14.34 -5 13.68 -5 13 C-5.66 12.67 -6.32 12.34 -7 12 C-6.01 11.34 -5.02 10.68 -4 10 C-3.34 10.33 -2.68 10.66 -2 11 C-1.34 7.37 -0.68 3.74 0 0 Z " fill="#5D4D43" transform="translate(50,52)"/>
<path d="M0 0 C0 1.65 0 3.3 0 5 C-3.63 5 -7.26 5 -11 5 C-9.47375 5.556875 -7.9475 6.11375 -6.375 6.6875 C-1.75324588 8.51913267 1.40733149 10.5964193 5 14 C4.54625 14.433125 4.0925 14.86625 3.625 15.3125 C1.79975666 17.10798342 1.79975666 17.10798342 0 20 C-0.66 20 -1.32 20 -2 20 C-2.66 19.01 -3.32 18.02 -4 17 C-5.65 17.33 -7.3 17.66 -9 18 C-8.649375 17.46375 -8.29875 16.9275 -7.9375 16.375 C-6.71075751 13.26725237 -7.27143569 11.20568297 -8 8 C-9.98 8 -11.96 8 -14 8 C-14.33 8.99 -14.66 9.98 -15 11 C-20.43396226 10.39622642 -20.43396226 10.39622642 -22.875 8.6875 C-24 7 -24 7 -24 3 C-19.545 2.505 -19.545 2.505 -15 2 C-15 1.34 -15 0.68 -15 0 C-10.1648862 -1.6117046 -4.80348505 -1.60116168 0 0 Z " fill="#D18B4E" transform="translate(49,73)"/>
<path d="M0 0 C4.6875 3.61328125 4.6875 3.61328125 6 5 C6 5.99 6 6.98 6 8 C7.65 7.67 9.3 7.34 11 7 C11 6.34 11 5.68 11 5 C11.66 5 12.32 5 13 5 C13.33 4.34 13.66 3.68 14 3 C15.38114148 6.56794883 14.90922646 8.84038852 13.5 12.25 C9.64492176 20.19779829 3.59014154 28.28581053 -4 33 C-6.6181853 33.54545527 -8.31227212 33.39196032 -11 33 C-8.94486102 31.97243051 -6.9900276 30.99658089 -4.8125 30.25 C-2.64470576 29.05273288 -2.64470576 29.05273288 -2.25 25.875 C-2.1675 24.92625 -2.085 23.9775 -2 23 C-0.68 22.67 0.64 22.34 2 22 C1.34 22 0.68 22 0 22 C0 21.34 0 20.68 0 20 C0.66 20 1.32 20 2 20 C1.34 19.34 0.68 18.68 0 18 C-1.1541971 15.21069033 -1.05526066 14.16209794 -0.0625 11.25 C0.288125 10.5075 0.63875 9.765 1 9 C1.66 9 2.32 9 3 9 C3.33 7.68 3.66 6.36 4 5 C3.34 5 2.68 5 2 5 C1.34 3.35 0.68 1.7 0 0 Z " fill="#9C6840" transform="translate(75,61)"/>
<path d="M0 0 C1.32 0.33 2.64 0.66 4 1 C4 4.63 4 8.26 4 12 C6.475 12.99 6.475 12.99 9 14 C13.40376365 17.55409631 15.23209156 21.42890179 16.6875 26.8125 C17.46941983 29.67088064 17.46941983 29.67088064 19 32 C22.63662482 33.55176734 26.06870649 33.9118848 30 34 C29.67 35.32 29.34 36.64 29 38 C27.02 38.495 27.02 38.495 25 39 C25 38.34 25 37.68 25 37 C24.05125 36.855625 23.1025 36.71125 22.125 36.5625 C19 36 19 36 17 35 C16.814375 35.556875 16.62875 36.11375 16.4375 36.6875 C13.72334535 41.05374878 8.71091223 44.06121302 4 46 C1.9257375 46.28480806 -0.16071439 46.48874224 -2.25 46.625 C-3.32765625 46.69976562 -4.4053125 46.77453125 -5.515625 46.8515625 C-6.33546875 46.90054688 -7.1553125 46.94953125 -8 47 C-5.42866432 43.79254991 -2.87425694 43.24558294 1.0625 42.375 C5.14814692 41.51454861 5.14814692 41.51454861 9 40 C8.67 39.34 8.34 38.68 8 38 C10.31 37.34 12.62 36.68 15 36 C14.70641281 29.65851674 13.74064928 24.25584899 10 19 C6.14530805 15.63139975 6.14530805 15.63139975 1.25 15.125 C-1.15484079 15.88634838 -1.15484079 15.88634838 -3 18 C-2.67 14.37 -2.34 10.74 -2 7 C-0.68 7.66 0.64 8.32 2 9 C2 6.69 2 4.38 2 2 C1.34 2 0.68 2 0 2 C0 1.34 0 0.68 0 0 Z " fill="#625D59" transform="translate(91,57)"/>
<path d="M0 0 C0.33 1.32 0.66 2.64 1 4 C-0.06541016 4.18175781 -0.06541016 4.18175781 -1.15234375 4.3671875 C-2.07144531 4.53476562 -2.99054687 4.70234375 -3.9375 4.875 C-4.85402344 5.03742187 -5.77054688 5.19984375 -6.71484375 5.3671875 C-7.46894531 5.57601563 -8.22304688 5.78484375 -9 6 C-9.33 6.66 -9.66 7.32 -10 8 C-8.845 8.020625 -7.69 8.04125 -6.5 8.0625 C-1.65424227 8.62096499 0.79208409 11.0300352 4.140625 14.40625 C6.12672479 16.10862125 7.44689625 16.59331091 10 17 C10 16.34 10 15.68 10 15 C10.99 15 11.98 15 13 15 C14.66666667 18.33333333 16.33333333 21.66666667 18 25 C17.01 25 16.02 25 15 25 C15 24.34 15 23.68 15 23 C14.13375 23.556875 14.13375 23.556875 13.25 24.125 C11 25 11 25 8.75 24.125 C8.1725 23.75375 7.595 23.3825 7 23 C7 22.34 7 21.68 7 21 C-0.48950666 16.60959954 -7.24081391 12.96884903 -16 12 C-15.25075609 7.13805855 -13.80748876 5.20175192 -10 2 C-6.5464886 0.18690652 -3.87920484 -0.22166885 0 0 Z " fill="#CF9966" transform="translate(57,12)"/>
<path d="M0 0 C0.495 1.485 0.495 1.485 1 3 C-7.97523902 11.63397518 -16.72824528 17.66035333 -28.125 22.75 C-28.78201904 23.04414795 -29.43903809 23.3382959 -30.1159668 23.64135742 C-40.31336034 28.04005822 -49.13662617 28.55191055 -60 27 C-60.33 26.01 -60.66 25.02 -61 24 C-59.73027344 23.98582031 -58.46054687 23.97164062 -57.15234375 23.95703125 C-45.82898962 23.6931325 -36.51021549 22.29780786 -26 18 C-24.59041016 17.48759766 -24.59041016 17.48759766 -23.15234375 16.96484375 C-20.83573563 16.19916941 -20.83573563 16.19916941 -20 14 C-19.030625 13.62875 -18.06125 13.2575 -17.0625 12.875 C-10.49898069 10.23872102 -4.86334662 5.05282765 0 0 Z " fill="#554F4B" transform="translate(115,97)"/>
<path d="M0 0 C0.70125 0.2475 1.4025 0.495 2.125 0.75 C2.429 9.718 2.429 9.718 0.125 13.75 C-2 15.5625 -2 15.5625 -3.875 16.75 C-4.205 16.42 -4.535 16.09 -4.875 15.75 C-4.875 16.74 -4.875 17.73 -4.875 18.75 C-6.75 18.5 -6.75 18.5 -8.875 17.75 C-10.125 15.6875 -10.125 15.6875 -10.875 13.75 C-11.865 13.75 -12.855 13.75 -13.875 13.75 C-13.545 12.1 -13.215 10.45 -12.875 8.75 C-11.885 8.42 -10.895 8.09 -9.875 7.75 C-9.7203125 6.8528125 -9.7203125 6.8528125 -9.5625 5.9375 C-8.875 3.75 -8.875 3.75 -6.125 1.4375 C-2.875 -0.25 -2.875 -0.25 0 0 Z " fill="#CD783A" transform="translate(69.875,65.25)"/>
<path d="M0 0 C0.28875 0.598125 0.5775 1.19625 0.875 1.8125 C2.04742026 4.19327792 2.04742026 4.19327792 4 7 C4 7.99 4 8.98 4 10 C4.5775 10.020625 5.155 10.04125 5.75 10.0625 C8.87398497 11.36416041 9.76874004 13.2842224 11.31640625 16.2109375 C12 18 12 18 11.75 20.4375 C11.5025 20.953125 11.255 21.46875 11 22 C10.67 20.68 10.34 19.36 10 18 C6.696686 17.11064623 3.37705625 16.53725895 0 16 C0 14.68 0 13.36 0 12 C-0.66 12 -1.32 12 -2 12 C-2.2981424 15.7763932 -2.2981424 15.7763932 -1 18 C-2.32 18 -3.64 18 -5 18 C-5 17.34 -5 16.68 -5 16 C-8.11785113 16.64644661 -8.11785113 16.64644661 -9 19 C-9.24787017 23.14503661 -9.24787017 23.14503661 -8 27 C-7.34 26.01 -6.68 25.02 -6 24 C-5.01 27.3 -4.02 30.6 -3 34 C-7.02822129 31.93145393 -9.2212373 30.21285902 -11 26 C-11.53907468 21.69582561 -11.47591878 18.71387818 -9 15 C-6.375 13.8125 -6.375 13.8125 -4 13 C-4.12375 11.7315625 -4.12375 11.7315625 -4.25 10.4375 C-3.92462977 5.96365938 -2.40067871 3.75106048 0 0 Z " fill="#A56F43" transform="translate(78,27)"/>
<path d="M0 0 C0.33 0.99 0.66 1.98 1 3 C1.99 3.33 2.98 3.66 4 4 C-1.75 7 -1.75 7 -4 7 C-5.41898766 9.64877696 -6.31911019 12.08014819 -7 15 C-6.42894531 14.99097656 -5.85789062 14.98195313 -5.26953125 14.97265625 C1.93826197 15.23621626 6.87069802 17.7514015 13.01953125 21.40625 C15.78669802 22.88594075 17.91478921 23.58939893 21 24 C21 24.33 21 24.66 21 25 C16.22233266 25.32877067 13.71608369 24.59901566 9.6875 22.0625 C4.59432096 19.09729302 0.85810126 18.19206889 -5 18 C-4.01 18.66 -3.02 19.32 -2 20 C-0.90434785 22.32826083 0.07371296 24.60709181 1 27 C2.65615461 31.07138009 4.16193238 34.62134807 7 38 C6.01 38 5.02 38 4 38 C4.33 38.99 4.66 39.98 5 41 C3.68 40.67 2.36 40.34 1 40 C0.76925781 38.98679688 0.53851563 37.97359375 0.30078125 36.9296875 C-1.38710629 29.88130799 -2.75171859 24.24828141 -8 19 C-9.5625 16.625 -9.5625 16.625 -10 14 C-8.54853637 9.71311903 -6.47571451 5.95298172 -3 3 C-2.34 3 -1.68 3 -1 3 C-0.67 2.01 -0.34 1.02 0 0 Z " fill="#756C62" transform="translate(48,9)"/>
<path d="M0 0 C2.4375 0.8125 2.4375 0.8125 4.4375 3.8125 C4.66796875 5.75 4.66796875 5.75 4.625 7.8125 C4.61855469 8.493125 4.61210938 9.17375 4.60546875 9.875 C4.4375 11.8125 4.4375 11.8125 3.4375 14.8125 C0.4375 15.8125 0.4375 15.8125 -2.1875 14.625 C-4.5625 12.8125 -4.5625 12.8125 -5.375 10.625 C-5.436875 10.026875 -5.49875 9.42875 -5.5625 8.8125 C-2.0975 10.2975 -2.0975 10.2975 1.4375 11.8125 C1.7675 10.4925 2.0975 9.1725 2.4375 7.8125 C1.7775 7.8125 1.1175 7.8125 0.4375 7.8125 C0.4375 7.1525 0.4375 6.4925 0.4375 5.8125 C-0.5525 5.8125 -1.5425 5.8125 -2.5625 5.8125 C-2.5625 6.4725 -2.5625 7.1325 -2.5625 7.8125 C-3.5525 7.8125 -4.5425 7.8125 -5.5625 7.8125 C-4.9025 6.4925 -4.2425 5.1725 -3.5625 3.8125 C-1.9125 3.8125 -0.2625 3.8125 1.4375 3.8125 C1.4375 3.4825 1.4375 3.1525 1.4375 2.8125 C-0.97895782 2.64562552 -0.97895782 2.64562552 -3.5625 2.8125 C-6.05755962 5.30755962 -5.92198376 6.48578888 -6.1875 9.9375 C-6.26226562 10.84757812 -6.33703125 11.75765625 -6.4140625 12.6953125 C-6.46304688 13.39398438 -6.51203125 14.09265625 -6.5625 14.8125 C-7.5525 14.8125 -8.5425 14.8125 -9.5625 14.8125 C-10.2225 14.1525 -10.8825 13.4925 -11.5625 12.8125 C-13.52940374 12.13957499 -13.52940374 12.13957499 -15.6875 11.6875 C-16.96625 11.39875 -18.245 11.11 -19.5625 10.8125 C-19.2325 9.8225 -18.9025 8.8325 -18.5625 7.8125 C-17.428125 7.68875 -16.29375 7.565 -15.125 7.4375 C-13.3615625 7.128125 -13.3615625 7.128125 -11.5625 6.8125 C-11.2325 6.1525 -10.9025 5.4925 -10.5625 4.8125 C-8.91916496 3.77460419 -7.25006133 2.77682076 -5.5625 1.8125 C-2.5625 -0.1875 -2.5625 -0.1875 0 0 Z " fill="#927053" transform="translate(66.5625,9.1875)"/>
<path d="M0 0 C0.33 0 0.66 0 1 0 C0.67 2.97 0.34 5.94 0 9 C-1.32 9.33 -2.64 9.66 -4 10 C-3.67 10.99 -3.34 11.98 -3 13 C-3.59167969 13.18175781 -4.18335937 13.36351563 -4.79296875 13.55078125 C-5.97826172 13.92783203 -5.97826172 13.92783203 -7.1875 14.3125 C-8.35345703 14.67794922 -8.35345703 14.67794922 -9.54296875 15.05078125 C-12.08341144 15.93309054 -12.08341144 15.93309054 -14.421875 17.58984375 C-17.53334101 19.29172137 -19.54019031 19.33905966 -23.0625 19.25 C-24.08472656 19.23453125 -25.10695313 19.2190625 -26.16015625 19.203125 C-28.58539159 19.02965562 -30.67844322 18.69034302 -33 18 C-33 17.34 -33 16.68 -33 16 C-30.36 16 -27.72 16 -25 16 C-25 15.34 -25 14.68 -25 14 C-23.35 13.67 -21.7 13.34 -20 13 C-20.33 11.35 -20.66 9.7 -21 8 C-20.34 8 -19.68 8 -19 8 C-17.375 10 -17.375 10 -16 12 C-12.15016043 11.77353885 -10.47038127 10.67662097 -7.9375 7.9375 C-7.47214844 7.38964844 -7.00679687 6.84179688 -6.52734375 6.27734375 C-5 5 -5 5 -1 5 C-0.67 3.35 -0.34 1.7 0 0 Z " fill="#C59262" transform="translate(48,54)"/>
<path d="M0 0 C0.94875 0.350625 1.8975 0.70125 2.875 1.0625 C5.87060172 2.35026777 5.87060172 2.35026777 8 1 C10.6015625 1.77734375 10.6015625 1.77734375 13.625 2.9375 C15.12933594 3.50791016 15.12933594 3.50791016 16.6640625 4.08984375 C17.43492188 4.39019531 18.20578125 4.69054687 19 5 C19 5.99 19 6.98 19 8 C17.09021367 8.7266797 15.17181485 9.43075588 13.25 10.125 C11.64898437 10.71667969 11.64898437 10.71667969 10.015625 11.3203125 C7 12 7 12 4.75390625 11.296875 C2.02368506 9.27809229 0.60050813 6.96390394 -1 4 C-0.75 1.625 -0.75 1.625 0 0 Z " fill="#E19F61" transform="translate(70,108)"/>
<path d="M0 0 C2.8848274 1.17530005 4.2379658 2.26301483 6.375 4.625 C8.80696526 7.3113851 8.80696526 7.3113851 12.1875 7.25 C13.115625 7.1675 14.04375 7.085 15 7 C15.66 7.33 16.32 7.66 17 8 C17 8.99 17 9.98 17 11 C18.98 10.67 20.96 10.34 23 10 C23 10.66 23 11.32 23 12 C25.31 12.33 27.62 12.66 30 13 C30 13.66 30 14.32 30 15 C28.02090602 15.02686553 26.04171029 15.04633375 24.0625 15.0625 C22.96035156 15.07410156 21.85820313 15.08570312 20.72265625 15.09765625 C18 15 18 15 17 14 C15.56841148 13.68057863 14.1294079 13.39403028 12.6875 13.125 C9.16680949 12.36816366 6.5183534 11.73734065 4 9 C4 8.01 4 7.02 4 6 C1.36 6.99 -1.28 7.98 -4 9 C-4 8.34 -4 7.68 -4 7 C-2.02 6.34 -0.04 5.68 2 5 C1.34 3.35 0.68 1.7 0 0 Z " fill="#5D4B40" transform="translate(25,85)"/>
<path d="M0 0 C3.5625 0.375 3.5625 0.375 5.5 2.1875 C6.5625 4.375 6.5625 4.375 6.5625 7.375 C7.2225 7.375 7.8825 7.375 8.5625 7.375 C8.5625 8.035 8.5625 8.695 8.5625 9.375 C5.10096154 12.375 5.10096154 12.375 2.5625 12.375 C2.2325 12.045 1.9025 11.715 1.5625 11.375 C0.9025 12.035 0.2425 12.695 -0.4375 13.375 C-3.4375 12.375 -3.4375 12.375 -5.1875 9.5625 C-6.4375 6.375 -6.4375 6.375 -6.25 4.125 C-4.69238785 0.77014307 -3.69672529 0.40327912 0 0 Z " fill="#BE7B49" transform="translate(59.4375,54.625)"/>
<path d="M0 0 C7.26 0 14.52 0 22 0 C18 5 18 5 14.75 5.8125 C13.8425 5.874375 12.935 5.93625 12 6 C12 6.66 12 7.32 12 8 C7.428721 7.45144652 3.32564205 6.58255197 -1 5 C-0.67 3.35 -0.34 1.7 0 0 Z " fill="#E19C5D" transform="translate(83,105)"/>
<path d="M0 0 C0.33 0.66 0.66 1.32 1 2 C0.0625 4.625 0.0625 4.625 -1 7 C-0.36191406 7.04898438 0.27617188 7.09796875 0.93359375 7.1484375 C1.75988281 7.22320312 2.58617188 7.29796875 3.4375 7.375 C4.26121094 7.44460937 5.08492187 7.51421875 5.93359375 7.5859375 C6.95646484 7.79089844 6.95646484 7.79089844 8 8 C8.495 8.99 8.495 8.99 9 10 C8.27554688 10.03738281 7.55109375 10.07476562 6.8046875 10.11328125 C-1.02665315 10.61638736 -1.02665315 10.61638736 -8 14 C-9.88131569 16.54788853 -9.88131569 16.54788853 -11 19 C-9.68 19.33 -8.36 19.66 -7 20 C-12.61 20.99 -18.22 21.98 -24 23 C-23.67 24.65 -23.34 26.3 -23 28 C-23.99 28 -24.98 28 -26 28 C-26 27.34 -26 26.68 -26 26 C-26.66 26 -27.32 26 -28 26 C-26.79618552 23.50638429 -25.54571278 21.31856917 -24 19 C-21.8984375 18.55078125 -21.8984375 18.55078125 -19.375 18.3125 C-11.99496084 17.01514441 -8.40394593 12.32340388 -4.171875 6.47265625 C-2.73104153 4.34170395 -1.34118846 2.19467203 0 0 Z " fill="#634B3A" transform="translate(87,75)"/>
<path d="M0 0 C1.98 0 3.96 0 6 0 C6 0.66 6 1.32 6 2 C6.71027344 2.08378906 7.42054687 2.16757812 8.15234375 2.25390625 C11.64352282 3.16860474 13.70905275 4.74284585 16.5625 6.9375 C19.62410623 9.27722959 22.47756277 11.41697527 26 13 C26 13.66 26 14.32 26 15 C24.02 14.34 22.04 13.68 20 13 C20 12.34 20 11.68 20 11 C19.030625 11 18.06125 11 17.0625 11 C15.70833333 11 14.35416667 11 13 11 C12.67 11.99 12.34 12.98 12 14 C10.35 14 8.7 14 7 14 C6.74476562 13.11248047 6.74476562 13.11248047 6.484375 12.20703125 C4.99889662 7.36342355 3.53140647 3.77495174 0 0 Z " fill="#ACAEA4" transform="translate(42,26)"/>
<path d="M0 0 C4.875 4.625 4.875 4.625 6 8 C6.66 8 7.32 8 8 8 C7.67 9.32 7.34 10.64 7 12 C6.34 12 5.68 12 5 12 C4.91363281 12.56847656 4.82726562 13.13695313 4.73828125 13.72265625 C3.65388869 19.68184105 1.80483365 23.29402154 -2 28 C-3.32 27.67 -4.64 27.34 -6 27 C-5.53980469 26.58105469 -5.07960938 26.16210938 -4.60546875 25.73046875 C-1.10068188 21.9528031 0.17803623 16.88370496 0.3125 11.8125 C0.03112511 8.37972639 -0.4734441 6.05311179 -2 3 C-1.34 3 -0.68 3 0 3 C0 2.01 0 1.02 0 0 Z " fill="#C0C1B6" transform="translate(71,58)"/>
<path d="M0 0 C0 1.65 0 3.3 0 5 C-3.63 5 -7.26 5 -11 5 C-11 5.33 -11 5.66 -11 6 C-12.98 6 -14.96 6 -17 6 C-17 6.99 -17 7.98 -17 9 C-17.66 9 -18.32 9 -19 9 C-18.67 7.35 -18.34 5.7 -18 4 C-18.66 4 -19.32 4 -20 4 C-20 4.99 -20 5.98 -20 7 C-20.66 7 -21.32 7 -22 7 C-22 6.34 -22 5.68 -22 5 C-22.66 5 -23.32 5 -24 5 C-24 4.34 -24 3.68 -24 3 C-19.545 2.505 -19.545 2.505 -15 2 C-15 1.34 -15 0.68 -15 0 C-10.1648862 -1.6117046 -4.80348505 -1.60116168 0 0 Z " fill="#9C673E" transform="translate(49,73)"/>
<path d="M0 0 C2.64 0.66 5.28 1.32 8 2 C8 2.66 8 3.32 8 4 C8.66 4 9.32 4 10 4 C9.67 4.99 9.34 5.98 9 7 C7.68 6.67 6.36 6.34 5 6 C4.67 6.99 4.34 7.98 4 9 C0.79619983 11.13586678 -0.01939967 11.23132175 -3.6875 11.125 C-4.89986328 11.09792969 -4.89986328 11.09792969 -6.13671875 11.0703125 C-7.05904297 11.03550781 -7.05904297 11.03550781 -8 11 C-6.63859873 6.54450493 -4.69243386 4.74565595 -1 2 C-0.67 1.34 -0.34 0.68 0 0 Z " fill="#B3855B" transform="translate(108,92)"/>
<path d="M0 0 C0.66 1.32 1.32 2.64 2 4 C1.34 4 0.68 4 0 4 C0 4.66 0 5.32 0 6 C1.32 5.67 2.64 5.34 4 5 C3.01 6.485 3.01 6.485 2 8 C0.68 7.67 -0.64 7.34 -2 7 C-1.896875 7.928125 -1.79375 8.85625 -1.6875 9.8125 C-1.790625 10.864375 -1.89375 11.91625 -2 13 C-4.32483088 14.87278043 -6.12289807 15.84052692 -9.0625 16.375 C-11.29586541 16.89886437 -11.29586541 16.89886437 -13 19.5 C-15 22 -15 22 -17.25 22.8125 C-17.8275 22.874375 -18.405 22.93625 -19 23 C-19 22.34 -19 21.68 -19 21 C-18.195625 20.525625 -17.39125 20.05125 -16.5625 19.5625 C-13.7081924 18.20016328 -13.7081924 18.20016328 -13 15 C-16.3 15 -19.6 15 -23 15 C-23 14.34 -23 13.68 -23 13 C-21.906875 13.103125 -20.81375 13.20625 -19.6875 13.3125 C-13.86042561 13.28133917 -8.79683481 11.24152079 -4 8 C-2.00215512 5.34438801 -1.12991701 3.17452874 0 0 Z " fill="#C28B5B" transform="translate(75,77)"/>
<path d="M0 0 C0.99 0.33 1.98 0.66 3 1 C2.67 2.65 2.34 4.3 2 6 C-2.95 7.485 -2.95 7.485 -8 9 C-7.67 9.66 -7.34 10.32 -7 11 C-8.32 11 -9.64 11 -11 11 C-11 11.66 -11 12.32 -11 13 C-15.455 13.495 -15.455 13.495 -20 14 C-20 16.31 -20 18.62 -20 21 C-20.66 20.67 -21.32 20.34 -22 20 C-22.625 16.9375 -22.625 16.9375 -23 14 C-25.31 13.67 -27.62 13.34 -30 13 C-29.67 12.34 -29.34 11.68 -29 11 C-25.89614303 10.70096988 -22.83780925 10.5845077 -19.72265625 10.52148438 C-15.30551477 10.34358379 -12.58505764 9.57757794 -9 7 C-5.84157603 5.12468577 -3.67148645 4.79602853 0 5 C0 4.34 0 3.68 0 3 C-0.66 2.67 -1.32 2.34 -2 2 C-1.34 1.34 -0.68 0.68 0 0 Z " fill="#5C524A" transform="translate(45,62)"/>
<path d="M0 0 C0 0.66 0 1.32 0 2 C-2.31 2.33 -4.62 2.66 -7 3 C-6.36191406 3.04898438 -5.72382812 3.09796875 -5.06640625 3.1484375 C-4.24011719 3.22320312 -3.41382812 3.29796875 -2.5625 3.375 C-1.73878906 3.44460937 -0.91507813 3.51421875 -0.06640625 3.5859375 C0.61550781 3.72257812 1.29742187 3.85921875 2 4 C2.33 4.66 2.66 5.32 3 6 C0.36 6.33 -2.28 6.66 -5 7 C-3.68 7.66 -2.36 8.32 -1 9 C-1 9.99 -1 10.98 -1 12 C-3.22694714 10.92776619 -5.25980644 9.82445511 -7.3125 8.4375 C-10.54177723 6.71021218 -13.37956857 6.35494426 -17 6 C-17 2 -17 2 -16 1 C-10.6038493 0.1479762 -5.45742292 -0.09745398 0 0 Z " fill="#BA8557" transform="translate(82,95)"/>
<path d="M0 0 C3.88382414 0.27096447 5.73173064 0.78538452 8.8125 3.25 C11.01217428 6.01530481 11.7027815 7.53245088 12 11 C7.62297367 9.77443263 3.30322683 8.46939453 -1 7 C-1.99 8.485 -1.99 8.485 -3 10 C-2.01 10.33 -1.02 10.66 0 11 C-1.65 11 -3.3 11 -5 11 C-4.46884894 6.48521602 -2.63379708 3.65333143 0 0 Z " fill="#B47949" transform="translate(91,71)"/>
<path d="M0 0 C0.66 0.33 1.32 0.66 2 1 C1.34 2.32 0.68 3.64 0 5 C-0.99 5 -1.98 5 -3 5 C-3 5.99 -3 6.98 -3 8 C-4.32 8 -5.64 8 -7 8 C-7 8.66 -7 9.32 -7 10 C-7.66 10 -8.32 10 -9 10 C-9 10.66 -9 11.32 -9 12 C-12.96 12 -16.92 12 -21 12 C-21.33 10.35 -21.66 8.7 -22 7 C-19.36 7.33 -16.72 7.66 -14 8 C-14 8.66 -14 9.32 -14 10 C-13.34 10 -12.68 10 -12 10 C-12.33 9.01 -12.66 8.02 -13 7 C-12.34 7 -11.68 7 -11 7 C-10.34 5.68 -9.68 4.36 -9 3 C-8.2575 3.2475 -7.515 3.495 -6.75 3.75 C-5.8425 3.8325 -4.935 3.915 -4 4 C-1.66545339 2.16641665 -1.66545339 2.16641665 0 0 Z " fill="#A5683B" transform="translate(105,86)"/>
<path d="M0 0 C0.20625 0.598125 0.4125 1.19625 0.625 1.8125 C2.50926082 4.81018767 4.81132084 5.61361776 8 7 C8 7.33 8 7.66 8 8 C0.41 8 -7.18 8 -15 8 C-10.46067416 3.46067416 -10.46067416 3.46067416 -6.9375 1.75 C-6.26589844 1.41484375 -5.59429687 1.0796875 -4.90234375 0.734375 C-3 0 -3 0 0 0 Z " fill="#DEA065" transform="translate(29,91)"/>
<path d="M0 0 C0.33 0.66 0.66 1.32 1 2 C2.97888961 2.72693904 4.97954558 3.39816251 7 4 C6.67 4.66 6.34 5.32 6 6 C5.01 5.67 4.02 5.34 3 5 C1.01531351 7.74830462 1.01531351 7.74830462 0.1875 10.0625 C-1.43180617 12.70452586 -3.13121916 12.85248766 -6 14 C-7.82182512 15.55631249 -9.5479547 17.17315626 -11.25390625 18.85546875 C-13 20 -13 20 -15.15625 19.796875 C-17 19 -17 19 -17.9375 17.0625 C-18.87279303 14.73547609 -18.87279303 14.73547609 -21.625 13.75 C-22.40875 13.5025 -23.1925 13.255 -24 13 C-24 12.34 -24 11.68 -24 11 C-21.25648576 11.99071348 -19.21135401 12.81506524 -17 14.75 C-15.04162691 16.29536908 -15.04162691 16.29536908 -12.625 15.5 C-10.42015548 14.24008885 -8.72856558 13.00668602 -6.8125 11.375 C-4 9 -4 9 -2 9 C-2.33 8.01 -2.66 7.02 -3 6 C-2.34 6 -1.68 6 -1 6 C-0.67 4.02 -0.34 2.04 0 0 Z " fill="#787067" transform="translate(48,47)"/>
<path d="M0 0 C4.1117256 -0.02465746 8.22342278 -0.04283959 12.33520508 -0.05493164 C13.73495228 -0.0599708 15.1346942 -0.06680216 16.53442383 -0.07543945 C18.54245777 -0.0875232 20.55052957 -0.09269807 22.55859375 -0.09765625 C24.37315063 -0.10551147 24.37315063 -0.10551147 26.22436523 -0.11352539 C29 0 29 0 30 1 C32.01311449 1.39569108 34.03597208 1.74252191 36.0625 2.0625 C37.16722656 2.23910156 38.27195313 2.41570312 39.41015625 2.59765625 C40.26480469 2.73042969 41.11945312 2.86320312 42 3 C41.67 3.99 41.34 4.98 41 6 C38.36 6 35.72 6 33 6 C33 5.67 33 5.34 33 5 C24.33829426 3.14520646 15.82641419 2.45263663 7 2 C7 2.66 7 3.32 7 4 C4.36 4 1.72 4 -1 4 C-0.67 2.68 -0.34 1.36 0 0 Z " fill="#96623A" transform="translate(13,98)"/>
<path d="M0 0 C1.0209375 0.680625 1.0209375 0.680625 2.0625 1.375 C5.30435186 3.16836486 8.4203441 4.08753869 12 5 C12 5.99 12 6.98 12 8 C11.01 8 10.02 8 9 8 C9 7.34 9 6.68 9 6 C8.05125 5.855625 7.1025 5.71125 6.125 5.5625 C3 5 3 5 1 4 C0.814375 4.556875 0.62875 5.11375 0.4375 5.6875 C-2.27665465 10.05374878 -7.28908777 13.06121302 -12 15 C-14.0742625 15.28480806 -16.16071439 15.48874224 -18.25 15.625 C-19.86648437 15.73714844 -19.86648437 15.73714844 -21.515625 15.8515625 C-22.33546875 15.90054688 -23.1553125 15.94953125 -24 16 C-21.42866432 12.79254991 -18.87425694 12.24558294 -14.9375 11.375 C-10.85185308 10.51454861 -10.85185308 10.51454861 -7 9 C-7.33 8.34 -7.66 7.68 -8 7 C-5.69 6.34 -3.38 5.68 -1 5 C-0.67 3.35 -0.34 1.7 0 0 Z " fill="#4C4340" transform="translate(107,88)"/>
<path d="M0 0 C4.50110136 0.5377422 7.70560916 1.67971007 11.625 3.9375 C13.41646585 4.95868571 15.20811677 5.97954686 17 7 C18.06347656 7.62068359 18.06347656 7.62068359 19.1484375 8.25390625 C21.17321883 9.30219478 21.17321883 9.30219478 24 8 C24 8.66 24 9.32 24 10 C24.99 10 25.98 10 27 10 C26.8125 11.875 26.8125 11.875 26 14 C24.34561387 14.69658363 22.67745682 15.36096883 21 16 C19.19651922 18.01317219 19.19651922 18.01317219 18 20 C18.33 17.36 18.66 14.72 19 12 C18.43152344 11.69707031 17.86304687 11.39414062 17.27734375 11.08203125 C12.23887693 8.34830552 7.60663927 5.40891306 3 2 C2.01 1.34 1.02 0.68 0 0 Z " fill="#DEDFD2" transform="translate(48,27)"/>
<path d="M0 0 C4.6875 3.61328125 4.6875 3.61328125 6 5 C6 5.99 6 6.98 6 8 C7.98 7.67 9.96 7.34 12 7 C12 7.66 12 8.32 12 9 C11.34 9 10.68 9 10 9 C9.71125 9.94875 9.4225 10.8975 9.125 11.875 C8 15 8 15 6 17 C6.33 17.66 6.66 18.32 7 19 C6.01 19 5.02 19 4 19 C4 17.68 4 16.36 4 15 C2.02463255 15.34786708 2.02463255 15.34786708 0 16 C-0.33 16.66 -0.66 17.32 -1 18 C-0.51421457 14.87709365 -0.0013988 12.00419641 1 9 C1.66 9 2.32 9 3 9 C3.33 7.68 3.66 6.36 4 5 C3.34 5 2.68 5 2 5 C1.34 3.35 0.68 1.7 0 0 Z " fill="#8E6A4C" transform="translate(75,61)"/>
<path d="M0 0 C0.99 0 1.98 0 3 0 C3 0.66 3 1.32 3 2 C4.32 2 5.64 2 7 2 C6.649375 2.5775 6.29875 3.155 5.9375 3.75 C4.82754596 5.92351548 4.82754596 5.92351548 5.1875 8.125 C5.95555364 10.36246318 5.95555364 10.36246318 9 12 C9 13.32 9 14.64 9 16 C7 15 5 14 3 13 C2.67 12.01 2.34 11.02 2 10 C1.34 10.66 0.68 11.32 0 12 C-2.31332486 8.53001271 -2.33957563 7.07490752 -2 3 C-1.34 2.01 -0.68 1.02 0 0 Z " fill="#DD9657" transform="translate(70,43)"/>
<path d="M0 0 C0.69609375 0.30164063 1.3921875 0.60328125 2.109375 0.9140625 C2.81578125 1.21054687 3.5221875 1.50703125 4.25 1.8125 C4.78109375 2.05226563 5.3121875 2.29203125 5.859375 2.5390625 C5.859375 1.8790625 5.859375 1.2190625 5.859375 0.5390625 C6.849375 0.5390625 7.839375 0.5390625 8.859375 0.5390625 C10.52604167 3.87239583 12.19270833 7.20572917 13.859375 10.5390625 C12.869375 10.5390625 11.879375 10.5390625 10.859375 10.5390625 C10.859375 9.8790625 10.859375 9.2190625 10.859375 8.5390625 C9.993125 9.0959375 9.993125 9.0959375 9.109375 9.6640625 C6.859375 10.5390625 6.859375 10.5390625 4.609375 9.6640625 C4.031875 9.2928125 3.454375 8.9215625 2.859375 8.5390625 C2.859375 7.8790625 2.859375 7.2190625 2.859375 6.5390625 C-0.110625 4.8890625 -3.080625 3.2390625 -6.140625 1.5390625 C-2.140625 -0.4609375 -2.140625 -0.4609375 0 0 Z " fill="#C58C57" transform="translate(61.140625,26.4609375)"/>
<path d="M0 0 C0.93045933 2.55144824 1.08564091 3.74006478 0.22265625 6.359375 C-0.16019531 7.14828125 -0.54304688 7.9371875 -0.9375 8.75 C-1.31777344 9.54921875 -1.69804688 10.3484375 -2.08984375 11.171875 C-2.39019531 11.77515625 -2.69054688 12.3784375 -3 13 C-3.66 13 -4.32 13 -5 13 C-5.33 12.01 -5.66 11.02 -6 10 C-6.99 10.66 -7.98 11.32 -9 12 C-11.1875 11.625 -11.1875 11.625 -13 11 C-11.4114658 6.71095765 -8.56872632 4.67654474 -5 2 C-4.34 2 -3.68 2 -3 2 C-3 2.66 -3 3.32 -3 4 C-2.34 4.33 -1.68 4.66 -1 5 C-0.67 3.35 -0.34 1.7 0 0 Z " fill="#E09D5D" transform="translate(61,107)"/>
<path d="M0 0 C0.66 0 1.32 0 2 0 C2.226875 0.639375 2.45375 1.27875 2.6875 1.9375 C3.83446488 4.24550302 3.83446488 4.24550302 6.4375 4.6875 C7.283125 4.790625 8.12875 4.89375 9 5 C9.99 5.33 10.98 5.66 12 6 C12 7.65 12 9.3 12 11 C8.62496331 9.8141763 6.35277269 8.72426311 4 6 C3.67 7.32 3.34 8.64 3 10 C2.34 10 1.68 10 1 10 C1 11.32 1 12.64 1 14 C1.66 14 2.32 14 3 14 C3 14.66 3 15.32 3 16 C1.0625 15.25 1.0625 15.25 -1 14 C-1.875 12 -1.875 12 -2 10 C-1.34 9.34 -0.68 8.68 0 8 C0 7.01 0 6.02 0 5 C-0.66 4.34 -1.32 3.68 -2 3 C-1.34 2.01 -0.68 1.02 0 0 Z " fill="#BC7F4C" transform="translate(76,39)"/>
<path d="M0 0 C0.33 0.66 0.66 1.32 1 2 C3.02503297 3.18708829 4.58499109 3.95891831 6.93359375 4.19140625 C10.1769305 5.46053802 10.79258756 7.80560107 12.25 10.875 C12.77078125 11.94492187 13.2915625 13.01484375 13.828125 14.1171875 C15 17 15 17 15 20 C13.68 20 12.36 20 11 20 C9.68 16.7 8.36 13.4 7 10 C6.34 10 5.68 10 5 10 C3.7109375 8.57421875 3.7109375 8.57421875 2.375 6.6875 C1.92898437 6.07261719 1.48296875 5.45773438 1.0234375 4.82421875 C0 3 0 3 0 0 Z " fill="#7B7873" transform="translate(71,17)"/>
<path d="M0 0 C0 0.99 0 1.98 0 3 C-0.78375 2.938125 -1.5675 2.87625 -2.375 2.8125 C-3.674375 2.9053125 -3.674375 2.9053125 -5 3 C-5.99 4.485 -5.99 4.485 -7 6 C-6.01 6 -5.02 6 -4 6 C-4 5.34 -4 4.68 -4 4 C-3.01 4 -2.02 4 -1 4 C-1 4.66 -1 5.32 -1 6 C-0.34 6 0.32 6 1 6 C0.67 7.32 0.34 8.64 0 10 C-1.65 9.67 -3.3 9.34 -5 9 C-5 9.66 -5 10.32 -5 11 C-3.0399719 12.63676257 -3.0399719 12.63676257 -1 14 C-3.64 14.33 -6.28 14.66 -9 15 C-8.91284983 13.06166004 -8.80467036 11.1242571 -8.6875 9.1875 C-8.62949219 8.10855469 -8.57148437 7.02960937 -8.51171875 5.91796875 C-8 3 -8 3 -6.625 1.125 C-4.37893879 -0.42996545 -2.66521224 -0.21609829 0 0 Z " fill="#835C40" transform="translate(68,11)"/>
<path d="M0 0 C2.97 0.495 2.97 0.495 6 1 C6.66 3.31 7.32 5.62 8 8 C5.23749964 9.38125018 3.05268901 9.19079306 0 9 C-2 7 -2 7 -3 5 C-3.66 4.67 -4.32 4.34 -5 4 C-3.68 4 -2.36 4 -1 4 C-0.67 2.68 -0.34 1.36 0 0 Z " fill="#BE7943" transform="translate(35,80)"/>
<path d="M0 0 C0.33 0.66 0.66 1.32 1 2 C0.030625 2.268125 -0.93875 2.53625 -1.9375 2.8125 C-3.4534375 3.4003125 -3.4534375 3.4003125 -5 4 C-5.33 4.99 -5.66 5.98 -6 7 C-7.7364743 8.15764953 -9.53487162 9.01714998 -11.40625 9.9375 C-13.33757598 10.98949358 -13.33757598 10.98949358 -14 14 C-13.01 14.33 -12.02 14.66 -11 15 C-10.67 15.66 -10.34 16.32 -10 17 C-13.55780196 16.39009109 -16.6828589 15.4216319 -20 14 C-18.57528957 9.72586871 -15.40885695 8.57144931 -11.6875 6.4375 C-11.01009766 6.03853516 -10.33269531 5.63957031 -9.63476562 5.22851562 C-6.47316052 3.3772923 -3.31090642 1.5745956 0 0 Z " fill="#6A6660" transform="translate(26,88)"/>
<path d="M0 0 C0.66 0 1.32 0 2 0 C2.33 2.64 2.66 5.28 3 8 C2.34 8 1.68 8 1 8 C1 8.66 1 9.32 1 10 C1.66 10 2.32 10 3 10 C3 12.31 3 14.62 3 17 C1.125 16.5 1.125 16.5 -1 15 C-2.83770946 10.7184256 -3.57685912 6.46776751 -2 2 C-1.34 1.34 -0.68 0.68 0 0 Z " fill="#AC6F3F" transform="translate(90,49)"/>
<path d="M0 0 C0.33 0.66 0.66 1.32 1 2 C1.61875 1.79375 2.2375 1.5875 2.875 1.375 C3.57625 1.25125 4.2775 1.1275 5 1 C5.66 1.66 6.32 2.32 7 3 C9.57061311 3.64767793 9.57061311 3.64767793 12 4 C12 4.99 12 5.98 12 7 C12.66 7 13.32 7 14 7 C14 7.99 14 8.98 14 10 C11.525 9.01 11.525 9.01 9 8 C9 8.66 9 9.32 9 10 C8.01 9.67 7.02 9.34 6 9 C5.67 8.34 5.34 7.68 5 7 C2.69034152 5.94647157 0.3570226 4.94280904 -2 4 C-1.34 2.68 -0.68 1.36 0 0 Z " fill="#C9844B" transform="translate(90,77)"/>
<path d="M0 0 C0.33 0.66 0.66 1.32 1 2 C-1.03318687 5.59717677 -2.30157188 7.65791276 -6.0625 9.5 C-9 10 -9 10 -12 8 C-13.65549531 7.61500109 -15.3222433 7.27206865 -17 7 C-16.34 5.35 -15.68 3.7 -15 2 C-14.1028125 2.4640625 -14.1028125 2.4640625 -13.1875 2.9375 C-10.91043228 4.10209704 -10.91043228 4.10209704 -8 5 C-8.33 3.68 -8.66 2.36 -9 1 C-7.68 1 -6.36 1 -5 1 C-5 1.99 -5 2.98 -5 4 C-5.66 4.66 -6.32 5.32 -7 6 C-6.01 6 -5.02 6 -4 6 C-1.78831775 3.05763218 -1.78831775 3.05763218 0 0 Z " fill="#846852" transform="translate(73,79)"/>
<path d="M0 0 C0 2.64 0 5.28 0 8 C-0.99 8 -1.98 8 -3 8 C-3.66 7.34 -4.32 6.68 -5 6 C-6.96690374 5.32707499 -6.96690374 5.32707499 -9.125 4.875 C-11.043125 4.441875 -11.043125 4.441875 -13 4 C-12.67 3.01 -12.34 2.02 -12 1 C-7.95858806 0.36605303 -4.0934693 -0.12404452 0 0 Z " fill="#9A673F" transform="translate(60,16)"/>
<path d="M0 0 C0.33 0.99 0.66 1.98 1 3 C-0.70360754 4.588417 -2.41311829 6.17050381 -4.125 7.75 C-5.07632813 8.63171875 -6.02765625 9.5134375 -7.0078125 10.421875 C-9.89169533 12.90668266 -12.72993854 15.05266003 -16 17 C-18.375 16.75 -18.375 16.75 -20 16 C-20 15.34 -20 14.68 -20 14 C-19.05125 13.67 -18.1025 13.34 -17.125 13 C-10.57241158 10.21849308 -4.90092654 5.09187173 0 0 Z " fill="#685F58" transform="translate(115,97)"/>
<path d="M0 0 C1.32 0.33 2.64 0.66 4 1 C4 4.63 4 8.26 4 12 C4.66 12 5.32 12 6 12 C6 12.99 6 13.98 6 15 C5.071875 14.938125 4.14375 14.87625 3.1875 14.8125 C-0.32958675 14.66522291 -0.32958675 14.66522291 -3 18 C-2.67 14.37 -2.34 10.74 -2 7 C-0.68 7.66 0.64 8.32 2 9 C2 6.69 2 4.38 2 2 C1.34 2 0.68 2 0 2 C0 1.34 0 0.68 0 0 Z " fill="#524B46" transform="translate(91,57)"/>
<path d="M0 0 C2.31314718 2.01467657 3.82942266 3.6086755 5.0625 6.4375 C5 9 5 9 2.5625 11.8125 C1.716875 12.534375 0.87125 13.25625 0 14 C-0.33 13.34 -0.66 12.68 -1 12 C-2.65 12 -4.3 12 -6 12 C-6 11.01 -6 10.02 -6 9 C-9.63 9.33 -13.26 9.66 -17 10 C-16.67 9.34 -16.34 8.68 -16 8 C-14.22950311 7.94589313 -12.45853151 7.90715881 -10.6875 7.875 C-9.70136719 7.85179688 -8.71523437 7.82859375 -7.69921875 7.8046875 C-5 8 -5 8 -2 10 C-2 9.34 -2 8.68 -2 8 C-0.35 8.66 1.3 9.32 3 10 C3 9.01 3 8.02 3 7 C2.34 7 1.68 7 1 7 C0.67 4.69 0.34 2.38 0 0 Z " fill="#D99F69" transform="translate(101,77)"/>
<path d="M0 0 C0.66 0.33 1.32 0.66 2 1 C2 1.66 2 2.32 2 3 C3.051875 3.0825 4.10375 3.165 5.1875 3.25 C9.3316273 4.06523816 11.08473367 4.99899055 14 8 C14.875 10.125 14.875 10.125 15 12 C14.67 12.66 14.34 13.32 14 14 C11.5625 13.3125 11.5625 13.3125 9 12 C8.1875 9.375 8.1875 9.375 8 7 C6.88625 6.87625 5.7725 6.7525 4.625 6.625 C1 6 1 6 -1 4 C-0.625 1.875 -0.625 1.875 0 0 Z " fill="#836147" transform="translate(63,97)"/>
<path d="M0 0 C0.66 0 1.32 0 2 0 C1.67 1.65 1.34 3.3 1 5 C1.66 5 2.32 5 3 5 C3 4.01 3 3.02 3 2 C9.19887485 1.62047705 13.4477112 2.1647887 19 5 C18.01 5.33 17.02 5.66 16 6 C15.34 5.67 14.68 5.34 14 5 C13.67 5.99 13.34 6.98 13 8 C12.67 6.68 12.34 5.36 12 4 C10.02 4 8.04 4 6 4 C5.67 4.99 5.34 5.98 5 7 C-0.49152542 6.38983051 -0.49152542 6.38983051 -2.875 4.5625 C-4 3 -4 3 -4 1 C-3.34 1 -2.68 1 -2 1 C-2 1.66 -2 2.32 -2 3 C-1.34 3 -0.68 3 0 3 C0 2.01 0 1.02 0 0 Z " fill="#D89153" transform="translate(29,77)"/>
<path d="M0 0 C0.33 0 0.66 0 1 0 C1 2.33333333 1 4.66666667 1 7 C1.33 7.66 1.66 8.32 2 9 C0.68 9 -0.64 9 -2 9 C-2 8.34 -2 7.68 -2 7 C-5.11785113 7.64644661 -5.11785113 7.64644661 -6 10 C-6.24787017 14.14503661 -6.24787017 14.14503661 -5 18 C-4.34 17.01 -3.68 16.02 -3 15 C-2.01 18.3 -1.02 21.6 0 25 C-4.02822129 22.93145393 -6.2212373 21.21285902 -8 17 C-8.53907468 12.69582561 -8.47591878 9.71387818 -6 6 C-5.154375 5.690625 -4.30875 5.38125 -3.4375 5.0625 C-2.2309375 4.5365625 -2.2309375 4.5365625 -1 4 C-0.11306697 1.95894361 -0.11306697 1.95894361 0 0 Z " fill="#A47E5B" transform="translate(75,36)"/>
<path d="M0 0 C7.26 0 14.52 0 22 0 C18 5 18 5 15.75 5.8125 C14.88375 5.9053125 14.88375 5.9053125 14 6 C13.67 5.34 13.34 4.68 13 4 C13.66 4 14.32 4 15 4 C15 3.34 15 2.68 15 2 C14.34 2 13.68 2 13 2 C12.67 2.66 12.34 3.32 12 4 C11.34 4 10.68 4 10 4 C10 3.01 10 2.02 10 1 C6.7 1.33 3.4 1.66 0 2 C0 1.34 0 0.68 0 0 Z " fill="#C78851" transform="translate(83,105)"/>
<path d="M0 0 C1.11375 0.3403125 1.11375 0.3403125 2.25 0.6875 C2.53571429 9.25892857 2.53571429 9.25892857 0.25 12.6875 C0.12625 12.06875 0.0025 11.45 -0.125 10.8125 C-0.62197356 8.49629168 -0.62197356 8.49629168 -2.75 6.6875 C-2.09 6.6875 -1.43 6.6875 -0.75 6.6875 C-1.41 5.6975 -2.07 4.7075 -2.75 3.6875 C-3.74 3.6875 -4.73 3.6875 -5.75 3.6875 C-5.75 4.3475 -5.75 5.0075 -5.75 5.6875 C-5.09 6.0175 -4.43 6.3475 -3.75 6.6875 C-6.72 6.1925 -6.72 6.1925 -9.75 5.6875 C-3.91015625 -0.44433594 -3.91015625 -0.44433594 0 0 Z " fill="#C5804B" transform="translate(69.75,65.3125)"/>
<path d="M0 0 C1.70884005 1.62339805 3.37446717 3.29319053 5 5 C5 5.66 5 6.32 5 7 C6.134375 7.12375 7.26875 7.2475 8.4375 7.375 C9.613125 7.58125 10.78875 7.7875 12 8 C12.33 8.66 12.66 9.32 13 10 C10.28603523 10.84811399 8.77012105 11.31066778 6 11 C2.93098793 9.05718192 0.35798727 6.76221365 -2 4 C-2 3.34 -2 2.68 -2 2 C-1.34 2 -0.68 2 0 2 C0 1.34 0 0.68 0 0 Z " fill="#4A4644" transform="translate(51,79)"/>
<path d="M0 0 C2.97 0 5.94 0 9 0 C8.67 0.66 8.34 1.32 8 2 C10.31 2.33 12.62 2.66 15 3 C15 3.99 15 4.98 15 6 C11.49223216 7.60355101 8.85645121 8.22036864 5 8 C5.99 7.67 6.98 7.34 8 7 C8 6.01 8 5.02 8 4 C6.02 4 4.04 4 2 4 C1.33333333 2.66666667 0.66666667 1.33333333 0 0 Z " fill="#E3A060" transform="translate(36,102)"/>
<path d="M0 0 C0.33 0 0.66 0 1 0 C1.19491452 1.45736087 1.38069358 2.91594593 1.5625 4.375 C1.66691406 5.18710937 1.77132812 5.99921875 1.87890625 6.8359375 C2 9 2 9 1 11 C0.28996601 17.8093424 0.91548097 23.06257516 4.125 29.125 C5 31 5 31 5 34 C-0.85152392 27.1732221 -1.94756935 20.83980791 -2 12 C-1.5457235 7.9482207 -0.85501398 3.98535442 0 0 Z " fill="#A8A498" transform="translate(51,51)"/>
<path d="M0 0 C1.77395508 0.42466497 3.54410631 0.8652409 5.3125 1.3125 C6.29863281 1.55613281 7.28476563 1.79976563 8.30078125 2.05078125 C11.00141012 3.00049589 12.20956216 3.81847677 14 6 C10.535 7.485 10.535 7.485 7 9 C3.99234114 6.15063897 1.72154788 3.76488042 0 0 Z " fill="#D39A63" transform="translate(76,109)"/>
<path d="M0 0 C2.33396103 2.94450051 4.14153871 5.61999759 3.75 9.4375 C3.5025 9.953125 3.255 10.46875 3 11 C2.67 9.68 2.34 8.36 2 7 C1.401875 6.87625 0.80375 6.7525 0.1875 6.625 C-2 6 -2 6 -5 4 C-5 3.34 -5 2.68 -5 2 C-5.66 2 -6.32 2 -7 2 C-7 1.34 -7 0.68 -7 0 C-2.85185185 -1.38271605 -2.85185185 -1.38271605 0 0 Z " fill="#B57542" transform="translate(86,38)"/>
<path d="M0 0 C2.96175123 0.61277612 4.38058783 1.25372522 7 3 C8.42149484 5.9178052 9 7.73204297 9 11 C7.35 10.67 5.7 10.34 4 10 C4 9.34 4 8.68 4 8 C3.38125 7.87625 2.7625 7.7525 2.125 7.625 C0 7 0 7 -2 5 C-1.360625 4.87625 -0.72125 4.7525 -0.0625 4.625 C0.618125 4.41875 1.29875 4.2125 2 4 C2.33 3.34 2.66 2.68 3 2 C2.01 1.67 1.02 1.34 0 1 C0 0.67 0 0.34 0 0 Z " fill="#E6E7DA" transform="translate(52,35)"/>
<path d="M0 0 C1.98 0 3.96 0 6 0 C5.01 0.33 4.02 0.66 3 1 C3 1.66 3 2.32 3 3 C4.65 3 6.3 3 8 3 C8 3.99 8 4.98 8 6 C6.906875 6.28875 5.81375 6.5775 4.6875 6.875 C0.95986155 7.81893204 0.95986155 7.81893204 -2 10 C-2 7.36 -2 4.72 -2 2 C-1.34 2 -0.68 2 0 2 C0 1.34 0 0.68 0 0 Z " fill="#DFE0D4" transform="translate(54,49)"/>
<path d="M0 0 C3.96 0.99 3.96 0.99 8 2 C7 6 7 6 4 8 C3.67 7.67 3.34 7.34 3 7 C3 7.99 3 8.98 3 10 C1.0625 9.625 1.0625 9.625 -1 9 C-1.33 8.34 -1.66 7.68 -2 7 C-1.34 7 -0.68 7 0 7 C1.00217064 3.41672247 1.00217064 3.41672247 0 0 Z " fill="#BC6B34" transform="translate(62,74)"/>
<path d="M0 0 C0.33 0.66 0.66 1.32 1 2 C0.0625 4.625 0.0625 4.625 -1 7 C-0.36191406 7.04898438 0.27617188 7.09796875 0.93359375 7.1484375 C1.75988281 7.22320312 2.58617188 7.29796875 3.4375 7.375 C4.26121094 7.44460937 5.08492187 7.51421875 5.93359375 7.5859375 C6.95646484 7.79089844 6.95646484 7.79089844 8 8 C8.33 8.66 8.66 9.32 9 10 C2.565 10.495 2.565 10.495 -4 11 C-5 7 -5 7 -4.00390625 5.078125 C-3.52824219 4.47484375 -3.05257812 3.8715625 -2.5625 3.25 C-2.08941406 2.63640625 -1.61632812 2.0228125 -1.12890625 1.390625 C-0.75636719 0.93171875 -0.38382812 0.4728125 0 0 Z " fill="#59483E" transform="translate(87,75)"/>
<path d="M0 0 C2.7972908 2.06756277 3.02692273 3.14440371 3.6875 6.6875 C3.790625 7.780625 3.89375 8.87375 4 10 C3.34 10 2.68 10 2 10 C2 10.66 2 11.32 2 12 C-1.465 13.485 -1.465 13.485 -5 15 C-4.67 12.69 -4.34 10.38 -4 8 C-3.01 7.67 -2.02 7.34 -1 7 C-0.34 7.33 0.32 7.66 1 8 C0.67 5.36 0.34 2.72 0 0 Z " fill="#C69465" transform="translate(84,56)"/>
<path d="M0 0 C4.875 4.625 4.875 4.625 6 8 C6.66 8 7.32 8 8 8 C7.67 9.32 7.34 10.64 7 12 C5.68 12 4.36 12 3 12 C2.01 9.69 1.02 7.38 0 5 C-0.66 5 -1.32 5 -2 5 C-2 4.34 -2 3.68 -2 3 C-1.34 3 -0.68 3 0 3 C0 2.01 0 1.02 0 0 Z " fill="#AAABA1" transform="translate(71,58)"/>
<path d="M0 0 C0.99 0.33 1.98 0.66 3 1 C3 1.66 3 2.32 3 3 C3.66 3 4.32 3 5 3 C5 3.66 5 4.32 5 5 C5.66 5 6.32 5 7 5 C7 5.66 7 6.32 7 7 C3.53846154 10 3.53846154 10 1 10 C0.67 9.67 0.34 9.34 0 9 C-0.33 9 -0.66 9 -1 9 C-1.09765625 2.84765625 -1.09765625 2.84765625 -1 1 C-0.67 0.67 -0.34 0.34 0 0 Z " fill="#CC793B" transform="translate(61,57)"/>
<path d="M0 0 C5.45132401 0.77876057 9.29587918 2.95914092 13 7 C13.556875 7.556875 14.11375 8.11375 14.6875 8.6875 C15.120625 9.120625 15.55375 9.55375 16 10 C15.01 10.33 14.02 10.66 13 11 C10.625 9.63671875 10.625 9.63671875 8 7.6875 C7.13375 7.05199219 6.2675 6.41648437 5.375 5.76171875 C4.59125 5.18035156 3.8075 4.59898438 3 4 C2.01 3.34 1.02 2.68 0 2 C0 1.34 0 0.68 0 0 Z " fill="#60574E" transform="translate(14,103)"/>
<path d="M0 0 C2.72950195 1.11201931 4.22695171 2.23308554 6.3125 4.375 C9.36954755 7.36095342 12.23990508 9.00936151 16 11 C15.01 11.495 15.01 11.495 14 12 C7.6 9.6 7.6 9.6 5 7 C1.81180248 7.33916995 -0.95781049 7.98593683 -4 9 C-4 8.34 -4 7.68 -4 7 C-2.02 6.34 -0.04 5.68 2 5 C1.34 3.35 0.68 1.7 0 0 Z " fill="#4F423C" transform="translate(25,85)"/>
<path d="M0 0 C0.99 0.33 1.98 0.66 3 1 C3.6875 3.0625 3.6875 3.0625 4 5 C3.36191406 5.32613281 2.72382812 5.65226562 2.06640625 5.98828125 C1.24011719 6.42527344 0.41382812 6.86226563 -0.4375 7.3125 C-1.26121094 7.74175781 -2.08492187 8.17101562 -2.93359375 8.61328125 C-5.30647644 9.90020887 -5.30647644 9.90020887 -6 13 C-6.99 13.33 -7.98 13.66 -9 14 C-9.33 12.35 -9.66 10.7 -10 9 C-9.01 8.67 -8.02 8.34 -7 8 C-5.79117904 5.99983534 -5.79117904 5.99983534 -5 4 C-4.01 4.33 -3.02 4.66 -2 5 C-2.66 5 -3.32 5 -4 5 C-4 5.66 -4 6.32 -4 7 C-3.071875 6.2575 -3.071875 6.2575 -2.125 5.5 C0 4 0 4 2 4 C2 3.34 2 2.68 2 2 C1.34 2 0.68 2 0 2 C0 1.34 0 0.68 0 0 Z " fill="#AC6D3F" transform="translate(66,60)"/>
<path d="M0 0 C2.97 0.33 5.94 0.66 9 1 C9 2.65 9 4.3 9 6 C6.69 5.67 4.38 5.34 2 5 C2 4.34 2 3.68 2 3 C0.68 3.33 -0.64 3.66 -2 4 C-2.33 3.34 -2.66 2.68 -3 2 C-2.01 2 -1.02 2 0 2 C0 1.34 0 0.68 0 0 Z " fill="#B47747" transform="translate(40,72)"/>
<path d="M0 0 C0.33 0 0.66 0 1 0 C0.67 2.97 0.34 5.94 0 9 C-1.32 9.33 -2.64 9.66 -4 10 C-5.6744239 10.6469365 -7.34302621 11.30959426 -9 12 C-9 9 -9 9 -7.25 6.8125 C-5 5 -5 5 -1 5 C-0.67 3.35 -0.34 1.7 0 0 Z " fill="#B78457" transform="translate(48,54)"/>
<path d="M0 0 C1.98 0.66 3.96 1.32 6 2 C6 2.66 6 3.32 6 4 C6.99 3.67 7.98 3.34 9 3 C9 3.66 9 4.32 9 5 C9.66 5 10.32 5 11 5 C11.33 4.01 11.66 3.02 12 2 C12.99 2.33 13.98 2.66 15 3 C13.17251097 5.46313739 11.77023784 6.83428618 8.73046875 7.48828125 C6.48520654 7.72518293 4.25544422 7.90361349 2 8 C1.67 6.68 1.34 5.36 1 4 C1.66 4 2.32 4 3 4 C2.01 2.68 1.02 1.36 0 0 Z " fill="#A7A9A0" transform="translate(50,41)"/>
<path d="M0 0 C0.33 0.99 0.66 1.98 1 3 C1.99 3.33 2.98 3.66 4 4 C-1.75 7 -1.75 7 -4 7 C-5.41377341 9.63904371 -6.37240135 12.07120629 -7 15 C-7.99 14.67 -8.98 14.34 -10 14 C-9.40361667 12.72549553 -8.79752584 11.45553123 -8.1875 10.1875 C-7.85105469 9.47980469 -7.51460937 8.77210937 -7.16796875 8.04296875 C-5.97824756 5.96195141 -4.83966269 4.53063798 -3 3 C-2.34 3 -1.68 3 -1 3 C-0.67 2.01 -0.34 1.02 0 0 Z " fill="#67615A" transform="translate(48,9)"/>
<path d="M0 0 C0.598125 0.165 1.19625 0.33 1.8125 0.5 C4.11344336 1.1114124 4.11344336 1.1114124 7 1 C9.1875 2.5 9.1875 2.5 11 4 C3.25 4.125 3.25 4.125 1 3 C1 3.66 1 4.32 1 5 C2.32 5.33 3.64 5.66 5 6 C3.35 6.66 1.7 7.32 0 8 C-0.66 7.34 -1.32 6.68 -2 6 C-1.34 4.02 -0.68 2.04 0 0 Z " fill="#685C52" transform="translate(14,67)"/>
<path d="M0 0 C0.33 0.66 0.66 1.32 1 2 C2.97888961 2.72693904 4.97954558 3.39816251 7 4 C6.67 4.66 6.34 5.32 6 6 C5.01 5.67 4.02 5.34 3 5 C1.45428722 7.31856917 0.20381448 9.50638429 -1 12 C-2.32 11.67 -3.64 11.34 -5 11 C-4.67 10.34 -4.34 9.68 -4 9 C-3.34 9 -2.68 9 -2 9 C-2.33 8.01 -2.66 7.02 -3 6 C-2.34 6 -1.68 6 -1 6 C-0.67 4.02 -0.34 2.04 0 0 Z " fill="#817467" transform="translate(48,47)"/>
<path d="M0 0 C-0.33 1.32 -0.66 2.64 -1 4 C-3.31 4.33 -5.62 4.66 -8 5 C-8 4.01 -8 3.02 -8 2 C-8.33 2.66 -8.66 3.32 -9 4 C-9.66 4 -10.32 4 -11 4 C-10.03493328 1.58733319 -9.27646516 0.20973219 -7.1875 -1.375 C-4.2149299 -2.22430574 -2.70182939 -1.3509147 0 0 Z " fill="#9D866F" transform="translate(56,8)"/>
<path d="M0 0 C7 9.1 7 9.1 7 12 C5.35 12 3.7 12 2 12 C-0.60018816 8.09971775 -0.15085514 4.52565431 0 0 Z " fill="#DB9E63" transform="translate(66,109)"/>
<path d="M0 0 C0.99 0 1.98 0 3 0 C3.20625 0.598125 3.4125 1.19625 3.625 1.8125 C5.50926082 4.81018767 7.81132084 5.61361776 11 7 C11 7.33 11 7.66 11 8 C4.4 8 -2.2 8 -9 8 C-9 7.67 -9 7.34 -9 7 C-3.555 6.505 -3.555 6.505 2 6 C2 4.35 2 2.7 2 1 C1.34 0.67 0.68 0.34 0 0 Z " fill="#CA905B" transform="translate(26,91)"/>
<path d="M0 0 C1.98 0.99 3.96 1.98 6 3 C6 3.33 6 3.66 6 4 C0.25 4.125 0.25 4.125 -2 3 C-2 3.66 -2 4.32 -2 5 C-0.68 5.33 0.64 5.66 2 6 C0.35 6 -1.3 6 -3 6 C-3.33 6.66 -3.66 7.32 -4 8 C-6.31 7.01 -8.62 6.02 -11 5 C-10.13375 4.814375 -10.13375 4.814375 -9.25 4.625 C-5.72221753 3.64506043 -3.04359228 2.02906152 0 0 Z " fill="#A2724B" transform="translate(54,87)"/>
<path d="M0 0 C0.66 1.32 1.32 2.64 2 4 C2.66 3.34 3.32 2.68 4 2 C4 2.66 4 3.32 4 4 C5.32 4.33 6.64 4.66 8 5 C8 5.66 8 6.32 8 7 C8.66 7 9.32 7 10 7 C10 7.66 10 8.32 10 9 C9.01 9.33 8.02 9.66 7 10 C4.8125 8.5625 4.8125 8.5625 3 7 C3.33 7.99 3.66 8.98 4 10 C3.34 10 2.68 10 2 10 C-0.09350689 6.5980513 -0.17942163 3.94727588 0 0 Z " fill="#9F663C" transform="translate(22,78)"/>
<path d="M0 0 C3.16417672 1.53773074 6.2132349 3.22411398 9.25 5 C10.14203125 5.515625 11.0340625 6.03125 11.953125 6.5625 C12.96632813 7.2740625 12.96632813 7.2740625 14 8 C14 8.66 14 9.32 14 10 C12.02 9.34 10.04 8.68 8 8 C8 7.34 8 6.68 8 6 C7.0925 6.061875 6.185 6.12375 5.25 6.1875 C1.71017358 5.98327924 0.55068845 5.35448165 -2 3 C-1 1 -1 1 0 0 Z " fill="#9A9C93" transform="translate(54,31)"/>
<path d="M0 0 C7.45937249 0.61142397 7.45937249 0.61142397 10 2.4375 C11 4 11 4 11 6 C6.39374606 6.32136655 3.66486096 5.91033076 0 3 C0 2.01 0 1.02 0 0 Z " fill="#E79F5D" transform="translate(48,21)"/>
<path d="M0 0 C-1.1196986 1.00593243 -2.2459412 2.0045849 -3.375 3 C-4.31472656 3.8353125 -4.31472656 3.8353125 -5.2734375 4.6875 C-7 6 -7 6 -9 6 C-9 5.34 -9 4.68 -9 4 C-9.5775 4.33 -10.155 4.66 -10.75 5 C-13 6 -13 6 -17 6 C-17 5.34 -17 4.68 -17 4 C-14.54453034 3.13670227 -12.08621957 2.28410564 -9.625 1.4375 C-8.57699219 1.0672168 -8.57699219 1.0672168 -7.5078125 0.68945312 C-2.2265625 -1.11328125 -2.2265625 -1.11328125 0 0 Z " fill="#DB9D63" transform="translate(55,109)"/>
<path d="M0 0 C0.66 0.99 1.32 1.98 2 3 C1.5390625 5.26171875 1.5390625 5.26171875 0.625 7.6875 C0.32851562 8.49574219 0.03203125 9.30398437 -0.2734375 10.13671875 C-0.51320313 10.75160156 -0.75296875 11.36648437 -1 12 C-1.99 12 -2.98 12 -4 12 C-4 8 -4 8 -3 6 C-2.34 6 -1.68 6 -1 6 C-1.33 4.68 -1.66 3.36 -2 2 C-1.34 2 -0.68 2 0 2 C0 1.34 0 0.68 0 0 Z " fill="#A77146" transform="translate(88,64)"/>
<path d="M0 0 C1.31625194 2.63250388 0.74813658 3.80179056 0.0625 6.625 C-0.13214844 7.44226562 -0.32679687 8.25953125 -0.52734375 9.1015625 C-0.68332031 9.72804688 -0.83929688 10.35453125 -1 11 C-1.33 10.01 -1.66 9.02 -2 8 C-3.65 8 -5.3 8 -7 8 C-7 7.34 -7 6.68 -7 6 C-8.32 6 -9.64 6 -11 6 C-11 5.34 -11 4.68 -11 4 C-9.741875 3.896875 -8.48375 3.79375 -7.1875 3.6875 C-4.39500343 3.35141192 -3.25566879 3.19974124 -1 1.4375 C-0.67 0.963125 -0.34 0.48875 0 0 Z " fill="#D3D4C8" transform="translate(64,44)"/>
<path d="M0 0 C0 0.66 0 1.32 0 2 C-2.31 2.33 -4.62 2.66 -7 3 C-6.01 3.66 -5.02 4.32 -4 5 C-5.45945288 4.91291331 -6.91765868 4.80473093 -8.375 4.6875 C-9.18710938 4.62949219 -9.99921875 4.57148437 -10.8359375 4.51171875 C-13 4 -13 4 -15 1 C-9.91913204 0.15318867 -5.15171623 -0.09038099 0 0 Z " fill="#C9915E" transform="translate(82,95)"/>
<path d="M0 0 C1.65 0 3.3 0 5 0 C5.33 0.99 5.66 1.98 6 3 C4 5 4 5 1.8359375 5.1953125 C0.61777344 5.16050781 0.61777344 5.16050781 -0.625 5.125 C-1.44226563 5.10695313 -2.25953125 5.08890625 -3.1015625 5.0703125 C-3.72804688 5.04710938 -4.35453125 5.02390625 -5 5 C-4.67 4.01 -4.34 3.02 -4 2 C-2.68 2 -1.36 2 0 2 C0 1.34 0 0.68 0 0 Z " fill="#D88848" transform="translate(105,98)"/>
<path d="M0 0 C0.66 0.33 1.32 0.66 2 1 C1.50628906 1.55429688 1.01257813 2.10859375 0.50390625 2.6796875 C-0.45708984 3.76636719 -0.45708984 3.76636719 -1.4375 4.875 C-2.07558594 5.59429687 -2.71367188 6.31359375 -3.37109375 7.0546875 C-5.05014465 8.90750491 -5.05014465 8.90750491 -6 11 C-4.68 11.33 -3.36 11.66 -2 12 C-4.64 12 -7.28 12 -10 12 C-8.52278578 8.54798361 -6.56205999 6.35038064 -3.875 3.75 C-3.15054688 3.04359375 -2.42609375 2.3371875 -1.6796875 1.609375 C-1.12539062 1.07828125 -0.57109375 0.5471875 0 0 Z " fill="#49413E" transform="translate(82,83)"/>
<path d="M0 0 C0.625 1.8125 0.625 1.8125 1 4 C0.01 5.485 0.01 5.485 -1 7 C-1.99 7 -2.98 7 -4 7 C-4 7.66 -4 8.32 -4 9 C-8.75 8.25 -8.75 8.25 -11 6 C-10.34 6 -9.68 6 -9 6 C-8.67 5.34 -8.34 4.68 -8 4 C-5.69 4 -3.38 4 -1 4 C-0.67 2.68 -0.34 1.36 0 0 Z " fill="#9B663E" transform="translate(71,20)"/>
<path d="M0 0 C1.50433594 0.29197266 1.50433594 0.29197266 3.0390625 0.58984375 C4.19535156 0.82380859 4.19535156 0.82380859 5.375 1.0625 C5.375 1.3925 5.375 1.7225 5.375 2.0625 C3.395 2.0625 1.415 2.0625 -0.625 2.0625 C-0.625 3.0525 -0.625 4.0425 -0.625 5.0625 C-3.265 4.7325 -5.905 4.4025 -8.625 4.0625 C-8.25 2.125 -8.25 2.125 -7.625 0.0625 C-4.81015955 -1.34492022 -3.05563887 -0.60402164 0 0 Z " fill="#D1894C" transform="translate(49.625,19.9375)"/>
<path d="M0 0 C0.99 0 1.98 0 3 0 C3.33 2.64 3.66 5.28 4 8 C1.69 8 -0.62 8 -3 8 C-1.125 2.25 -1.125 2.25 0 0 Z " fill="#D5965C" transform="translate(62,113)"/>
<path d="M0 0 C2.97 0.495 2.97 0.495 6 1 C6 1.66 6 2.32 6 3 C6.66 3.33 7.32 3.66 8 4 C7.01 4 6.02 4 5 4 C4.67 5.32 4.34 6.64 4 8 C3.34 7.67 2.68 7.34 2 7 C2.33 6.34 2.66 5.68 3 5 C1.35 5.33 -0.3 5.66 -2 6 C-2 5.34 -2 4.68 -2 4 C-1.34 3.67 -0.68 3.34 0 3 C0 2.01 0 1.02 0 0 Z " fill="#E6A05F" transform="translate(25,100)"/>
<path d="M0 0 C6.93 0.33 13.86 0.66 21 1 C21 1.33 21 1.66 21 2 C16.38 2 11.76 2 7 2 C7 2.66 7 3.32 7 4 C4.36 4 1.72 4 -1 4 C-0.67 2.68 -0.34 1.36 0 0 Z " fill="#A2734B" transform="translate(13,98)"/>
<path d="M0 0 C0.33 0.66 0.66 1.32 1 2 C0.030625 2.268125 -0.93875 2.53625 -1.9375 2.8125 C-2.948125 3.204375 -3.95875 3.59625 -5 4 C-5.33 4.99 -5.66 5.98 -6 7 C-8.92079805 9.07530387 -10.37546731 10 -14 10 C-12.64412646 5.93237939 -10.0515406 5.13665748 -6.4375 3.3125 C-5.82197266 2.99216797 -5.20644531 2.67183594 -4.57226562 2.34179688 C-3.0526445 1.55253629 -1.52688189 0.77512085 0 0 Z " fill="#716B65" transform="translate(26,88)"/>
<path d="M0 0 C0.66 0.33 1.32 0.66 2 1 C1.34 2.32 0.68 3.64 0 5 C-0.99 5 -1.98 5 -3 5 C-3 5.99 -3 6.98 -3 8 C-5.16874252 7.49396008 -6.99967627 7.00016187 -9 6 C-9 5.01 -9 4.02 -9 3 C-8.2575 3.2475 -7.515 3.495 -6.75 3.75 C-5.8425 3.8325 -4.935 3.915 -4 4 C-1.66545339 2.16641665 -1.66545339 2.16641665 0 0 Z " fill="#B27443" transform="translate(105,86)"/>
<path d="M0 0 C4.58940085 6.88410127 4.26977341 14.98173474 4 23 C3.67 23 3.34 23 3 23 C2.92652344 22.00419922 2.92652344 22.00419922 2.8515625 20.98828125 C2.44396808 15.56062677 2.44396808 15.56062677 0.9375 10.375 C-0.44723859 6.86699556 -0.12727734 3.7546816 0 0 Z " fill="#7F7C76" transform="translate(92,45)"/>
<path d="M0 0 C5.75 1.625 5.75 1.625 8 5 C6.02 5.66 4.04 6.32 2 7 C0 5 0 5 -0.125 2.375 C-0.08375 1.59125 -0.0425 0.8075 0 0 Z " fill="#D0935A" transform="translate(73,113)"/>
<path d="M0 0 C0.33 0.99 0.66 1.98 1 3 C2.32 2.67 3.64 2.34 5 2 C4.01 3.98 3.02 5.96 2 8 C0.02 7.01 -1.96 6.02 -4 5 C-4 4.01 -4 3.02 -4 2 C-2.68 1.34 -1.36 0.68 0 0 Z " fill="#BF8856" transform="translate(28,104)"/>
<path d="M0 0 C1.2065625 0.0309375 1.2065625 0.0309375 2.4375 0.0625 C2.7675 2.0425 3.0975 4.0225 3.4375 6.0625 C2.86 5.876875 2.2825 5.69125 1.6875 5.5 C-0.76942525 5.02226454 -2.20647534 5.30520636 -4.5625 6.0625 C-3.48963568 0.08511307 -3.48963568 0.08511307 0 0 Z " fill="#AD7749" transform="translate(89.5625,85.9375)"/>
<path d="M0 0 C0.66 0.33 1.32 0.66 2 1 C2.40729228 3.32156597 2.74438677 5.6568787 3 8 C1.35 8 -0.3 8 -2 8 C-2.33 7.01 -2.66 6.02 -3 5 C-3.66 4.67 -4.32 4.34 -5 4 C-4.34 3.67 -3.68 3.34 -3 3 C-3 2.34 -3 1.68 -3 1 C-2.01 0.67 -1.02 0.34 0 0 Z " fill="#C47238" transform="translate(67,68)"/>
<path d="M0 0 C5.61 0 11.22 0 17 0 C17 0.33 17 0.66 17 1 C14.69 1.33 12.38 1.66 10 2 C10 2.33 10 2.66 10 3 C7.03 3 4.06 3 1 3 C0.67 2.01 0.34 1.02 0 0 Z " fill="#6B5F54" transform="translate(54,121)"/>
<path d="M0 0 C-3 2 -3 2 -7 2 C-7.33 2.99 -7.66 3.98 -8 5 C-10.64 5 -13.28 5 -16 5 C-16 4.01 -16 3.02 -16 2 C-14.27192682 1.66104344 -12.54248026 1.32908475 -10.8125 1 C-9.84957031 0.814375 -8.88664062 0.62875 -7.89453125 0.4375 C-5.2065794 0.03122388 -2.71228981 -0.07933572 0 0 Z " fill="#49433F" transform="translate(79,120)"/>
<path d="M0 0 C0.99 0.33 1.98 0.66 3 1 C2.67 2.65 2.34 4.3 2 6 C-5.42857143 8.42857143 -5.42857143 8.42857143 -9 7 C-5.86501708 5.14223235 -3.62528568 4.79859524 0 5 C0 4.34 0 3.68 0 3 C-0.66 2.67 -1.32 2.34 -2 2 C-1.34 1.34 -0.68 0.68 0 0 Z " fill="#94633E" transform="translate(45,62)"/>
<path d="M0 0 C0.12375 0.639375 0.2475 1.27875 0.375 1.9375 C0.58125 2.618125 0.7875 3.29875 1 4 C1.66 4.33 2.32 4.66 3 5 C-0.32561865 6.76062164 -1.59173995 7.10784228 -5.3125 6.125 C-6.199375 5.75375 -7.08625 5.3825 -8 5 C-6.1875 3 -6.1875 3 -4 1 C-3.01 1 -2.02 1 -1 1 C-0.67 0.67 -0.34 0.34 0 0 Z " fill="#917962" transform="translate(55,116)"/>
<path d="M0 0 C1.60495567 0.11442461 3.20898119 0.24194694 4.8125 0.375 C5.70582031 0.44460937 6.59914063 0.51421875 7.51953125 0.5859375 C10 1 10 1 13 3 C6.60655738 5.21311475 6.60655738 5.21311475 3.6875 4.1875 C3.130625 3.795625 2.57375 3.40375 2 3 C1.34 2.67 0.68 2.34 0 2 C0 1.34 0 0.68 0 0 Z " fill="#896447" transform="translate(57,104)"/>
<path d="M0 0 C0.66 0.33 1.32 0.66 2 1 C1.67 1.66 1.34 2.32 1 3 C3.64 3 6.28 3 9 3 C7.79296875 4.55078125 7.79296875 4.55078125 6 6 C3.73828125 5.85546875 3.73828125 5.85546875 1.3125 5.1875 C0.50425781 4.97480469 -0.30398437 4.76210937 -1.13671875 4.54296875 C-1.75160156 4.36378906 -2.36648437 4.18460937 -3 4 C-3 3.01 -3 2.02 -3 1 C-2.01 0.67 -1.02 0.34 0 0 Z " fill="#9C6942" transform="translate(99,100)"/>
<path d="M0 0 C4.01840251 2.06350399 6.15903905 3.83361468 8 8 C8.1875 11.3125 8.1875 11.3125 8 14 C5.20416203 12.60208101 4.91441103 10.56368664 3.796875 7.78125 C2.82289701 5.60412273 1.45893992 3.87577989 0 2 C0 1.34 0 0.68 0 0 Z " fill="#6A6058" transform="translate(84,35)"/>
<path d="M0 0 C1.98 0 3.96 0 6 0 C6 0.66 6 1.32 6 2 C6.804375 2.12375 7.60875 2.2475 8.4375 2.375 C9.7059375 2.684375 9.7059375 2.684375 11 3 C11.33 3.66 11.66 4.32 12 5 C8.8125 5.875 8.8125 5.875 5 6 C2.78700108 4.21974097 1.61203169 2.39362281 0 0 Z " fill="#A1A39B" transform="translate(42,26)"/>
<path d="M0 0 C0.66 0.66 1.32 1.32 2 2 C2.33 1.34 2.66 0.68 3 0 C4.32 0 5.64 0 7 0 C7.5625 1.9375 7.5625 1.9375 8 4 C7 5 7 5 3.9375 5.0625 C2.968125 5.041875 1.99875 5.02125 1 5 C0.34 3.68 -0.32 2.36 -1 1 C-0.67 0.67 -0.34 0.34 0 0 Z " fill="#6E6157" transform="translate(21,63)"/>
<path d="M0 0 C3.71368887 1.23789629 4.77354181 2.85224877 7 6 C7 6.66 7 7.32 7 8 C7.66 8 8.32 8 9 8 C9.33 10.64 9.66 13.28 10 16 C8.01565372 14.01565372 7.27168106 12.6363263 6.125 10.125 C4.51117002 6.77599944 2.74061342 4.54485532 0 2 C0 1.34 0 0.68 0 0 Z " fill="#604E41" transform="translate(79,48)"/>
<path d="M0 0 C0 2.64 0 5.28 0 8 C-0.99 8 -1.98 8 -3 8 C-4.6875 5.5 -4.6875 5.5 -6 3 C-2.25 0 -2.25 0 0 0 Z " fill="#A96D3F" transform="translate(60,16)"/>
<path d="M0 0 C0.80824219 0.28746094 1.61648437 0.57492188 2.44921875 0.87109375 C3.06410156 1.09925781 3.67898437 1.32742187 4.3125 1.5625 C4.3125 2.5525 4.3125 3.5425 4.3125 4.5625 C1.8375 3.5725 1.8375 3.5725 -0.6875 2.5625 C-0.6875 3.2225 -0.6875 3.8825 -0.6875 4.5625 C-1.6775 4.2325 -2.6675 3.9025 -3.6875 3.5625 C-4.0175 2.9025 -4.3475 2.2425 -4.6875 1.5625 C-5.6775 0.9025 -6.6675 0.2425 -7.6875 -0.4375 C-4.20878379 -1.59707207 -3.34530355 -1.21206651 0 0 Z " fill="#A9764A" transform="translate(99.6875,82.4375)"/>
<path d="M0 0 C0 0.66 0 1.32 0 2 C-1.43344 2.53190541 -2.87195367 3.05015258 -4.3125 3.5625 C-5.51326172 3.99755859 -5.51326172 3.99755859 -6.73828125 4.44140625 C-9 5 -9 5 -12 4 C-8.31497587 -0.23095363 -5.4879376 -1.82931253 0 0 Z " fill="#D18F56" transform="translate(45,65)"/>
<path d="M0 0 C2.31 0 4.62 0 7 0 C7 0.66 7 1.32 7 2 C8.98 2 10.96 2 13 2 C13 2.33 13 2.66 13 3 C11.02 3 9.04 3 7 3 C7 3.99 7 4.98 7 6 C6.34 6 5.68 6 5 6 C5.33 4.35 5.66 2.7 6 1 C5.34 1 4.68 1 4 1 C4 1.99 4 2.98 4 4 C3.34 4 2.68 4 2 4 C2 3.34 2 2.68 2 2 C1.34 2 0.68 2 0 2 C0 1.34 0 0.68 0 0 Z " fill="#AE784C" transform="translate(25,76)"/>
<path d="M0 0 C1.98 1.65 3.96 3.3 6 5 C5.01 5.33 4.02 5.66 3 6 C3.33 6.99 3.66 7.98 4 9 C2.68 8.67 1.36 8.34 0 8 C-0.38063221 5.6739143 -0.71269945 3.33944736 -1 1 C-0.67 0.67 -0.34 0.34 0 0 Z " fill="#5E5D59" transform="translate(49,41)"/>
<path d="M0 0 C2.62187494 1.04874998 3.79371361 1.64931313 5.25 4.125 C5.4975 4.74375 5.745 5.3625 6 6 C5.01 6 4.02 6 3 6 C3 5.34 3 4.68 3 4 C2.4225 4.37125 1.845 4.7425 1.25 5.125 C-1 6 -1 6 -3.25 5.125 C-3.8275 4.75375 -4.405 4.3825 -5 4 C-4 3 -4 3 -1.4375 2.9375 C-0.2309375 2.9684375 -0.2309375 2.9684375 1 3 C0.67 2.01 0.34 1.02 0 0 Z " fill="#BCA78D" transform="translate(69,31)"/>
<path d="M0 0 C0.99 0 1.98 0 3 0 C3 0.66 3 1.32 3 2 C3.66 2 4.32 2 5 2 C4.67 3.32 4.34 4.64 4 6 C2.35 5.67 0.7 5.34 -1 5 C-1.33 4.01 -1.66 3.02 -2 2 C-1.34 2 -0.68 2 0 2 C0 1.34 0 0.68 0 0 Z " fill="#4C4542" transform="translate(64,15)"/>
<path d="M0 0 C3.875 1.75 3.875 1.75 5 4 C4.01 4.66 3.02 5.32 2 6 C1.01 7.485 1.01 7.485 0 9 C-0.66 9 -1.32 9 -2 9 C-2.33 7.68 -2.66 6.36 -3 5 C-1.68 4.67 -0.36 4.34 1 4 C0.67 2.68 0.34 1.36 0 0 Z " fill="#DDA168" transform="translate(49,84)"/>
<path d="M0 0 C0.33 0.66 0.66 1.32 1 2 C1.61875 2.28875 2.2375 2.5775 2.875 2.875 C5.36796335 4.19480413 6.45147781 5.67721672 8 8 C7.67 8.66 7.34 9.32 7 10 C6.34 10 5.68 10 5 10 C3.7109375 8.57421875 3.7109375 8.57421875 2.375 6.6875 C1.92898437 6.07261719 1.48296875 5.45773438 1.0234375 4.82421875 C0 3 0 3 0 0 Z " fill="#A38970" transform="translate(71,17)"/>
<path d="M0 0 C0.66 0.33 1.32 0.66 2 1 C2 1.66 2 2.32 2 3 C3.134375 3.12375 4.26875 3.2475 5.4375 3.375 C6.613125 3.58125 7.78875 3.7875 9 4 C9.33 4.66 9.66 5.32 10 6 C8.54207116 6.05399736 7.08357288 6.09279177 5.625 6.125 C4.81289062 6.14820312 4.00078125 6.17140625 3.1640625 6.1953125 C1 6 1 6 -1 4 C-0.625 1.875 -0.625 1.875 0 0 Z " fill="#95643F" transform="translate(63,97)"/>
<path d="M0 0 C6.19887485 -0.37952295 10.4477112 0.1647887 16 3 C15.01 3.33 14.02 3.66 13 4 C12.34 3.67 11.68 3.34 11 3 C10.67 3.99 10.34 4.98 10 6 C9.67 4.68 9.34 3.36 9 2 C6.03 1.67 3.06 1.34 0 1 C0 0.67 0 0.34 0 0 Z " fill="#D5A270" transform="translate(32,79)"/>
<path d="M0 0 C0.99 0.33 1.98 0.66 3 1 C3 1.99 3 2.98 3 4 C3.99 4.33 4.98 4.66 6 5 C5.67 5.66 5.34 6.32 5 7 C3.02 6.34 1.04 5.68 -1 5 C-1 1 -1 1 0 0 Z " fill="#AE6E3D" transform="translate(97,75)"/>
<path d="M0 0 C1.98 0.66 3.96 1.32 6 2 C6 3.65 6 5.3 6 7 C3.5625 6.3125 3.5625 6.3125 1 5 C0.1875 2.375 0.1875 2.375 0 0 Z " fill="#CF8245" transform="translate(82,43)"/>
<path d="M0 0 C1.32 0.66 2.64 1.32 4 2 C1.14521674 3.90318884 -0.41941308 4.4619099 -3.6875 5.125 C-4.49574219 5.29257813 -5.30398437 5.46015625 -6.13671875 5.6328125 C-6.75160156 5.75398438 -7.36648437 5.87515625 -8 6 C-8 5.34 -8 4.68 -8 4 C-7.236875 3.71125 -6.47375 3.4225 -5.6875 3.125 C-2.84970692 2.03730987 -2.84970692 2.03730987 0 0 Z " fill="#7E776E" transform="translate(80,118)"/>
<path d="M0 0 C1.0209375 0.433125 1.0209375 0.433125 2.0625 0.875 C5.32893093 2.12597355 8.62846123 3.07447955 12 4 C9 6 9 6 6 7 C1.125 2.25 1.125 2.25 0 0 Z " fill="#A47850" transform="translate(77,111)"/>
<path d="M0 0 C0.598125 0.20625 1.19625 0.4125 1.8125 0.625 C1.4825 2.275 1.1525 3.925 0.8125 5.625 C-0.5075 5.625 -1.8275 5.625 -3.1875 5.625 C-3.1875 4.635 -3.1875 3.645 -3.1875 2.625 C-3.8475 2.295 -4.5075 1.965 -5.1875 1.625 C-2.1875 -0.375 -2.1875 -0.375 0 0 Z " fill="#CC8C53" transform="translate(42.1875,105.375)"/>
<path d="M0 0 C0.33 0.66 0.66 1.32 1 2 C0.67 2.99 0.34 3.98 0 5 C0.99 5 1.98 5 3 5 C2.34 6.32 1.68 7.64 1 9 C-1.0625 7.25 -1.0625 7.25 -3 5 C-2.875 2.8125 -2.875 2.8125 -2 1 C-1.34 0.67 -0.68 0.34 0 0 Z " fill="#AE6838" transform="translate(56,74)"/>
<path d="M0 0 C2.0625 0.25 2.0625 0.25 4 1 C4.33 1.66 4.66 2.32 5 3 C3.68 3 2.36 3 1 3 C1 3.66 1 4.32 1 5 C-2.3 4.67 -5.6 4.34 -9 4 C-9 3.67 -9 3.34 -9 3 C-7.88625 2.87625 -6.7725 2.7525 -5.625 2.625 C-1.96896323 2.3534187 -1.96896323 2.3534187 0 0 Z " fill="#6F5442" transform="translate(33,70)"/>
<path d="M0 0 C3.93673644 1.31224548 6.22719294 2.91910327 9 6 C8.34 6.66 7.68 7.32 7 8 C6.4121875 7.01 6.4121875 7.01 5.8125 6 C4.14583333 3.70833333 4.14583333 3.70833333 1.3125 3.75 C0.549375 3.8325 -0.21375 3.915 -1 4 C-0.67 2.68 -0.34 1.36 0 0 Z " fill="#AF8762" transform="translate(93,71)"/>
<path d="M0 0 C0.99 0 1.98 0 3 0 C3 3.63 3 7.26 3 11 C0 11 0 11 -2 10 C-1.67 9.01 -1.34 8.02 -1 7 C0.485 7.99 0.485 7.99 2 9 C2 6.69 2 4.38 2 2 C1.34 2 0.68 2 0 2 C0 1.34 0 0.68 0 0 Z " fill="#795841" transform="translate(91,57)"/>
<path d="M0 0 C0.99 0 1.98 0 3 0 C3 0.99 3 1.98 3 3 C2.34 3 1.68 3 1 3 C1 3.66 1 4.32 1 5 C1.66 5 2.32 5 3 5 C3 6.32 3 7.64 3 9 C2.01 8.67 1.02 8.34 0 8 C-1.125 2.25 -1.125 2.25 0 0 Z " fill="#BD7741" transform="translate(90,54)"/>
<path d="M0 0 C2.95183101 2.95183101 3.08663988 5.95511947 4 10 C0.83282717 8.41641358 -0.73268318 7.54736301 -2.3125 4.3125 C-2.539375 3.549375 -2.76625 2.78625 -3 2 C-2.01 2.495 -2.01 2.495 -1 3 C-0.67 2.01 -0.34 1.02 0 0 Z " fill="#7C634E" transform="translate(71,51)"/>
<path d="M0 0 C1.98 0 3.96 0 6 0 C5.01 0.33 4.02 0.66 3 1 C3 1.66 3 2.32 3 3 C4.65 3 6.3 3 8 3 C8 3.99 8 4.98 8 6 C6.68 6 5.36 6 4 6 C4 5.34 4 4.68 4 4 C2.68 3.34 1.36 2.68 0 2 C0 1.34 0 0.68 0 0 Z " fill="#EBEDDF" transform="translate(54,49)"/>
<path d="M0 0 C2 1 4 2 6 3 C6.625 6.0625 6.625 6.0625 7 9 C3.26115668 6.34345343 1.35021826 4.41889613 0 0 Z " fill="#AE8560" transform="translate(73,56)"/>
<path d="M0 0 C0.99 0 1.98 0 3 0 C3.625 1.8125 3.625 1.8125 4 4 C3.01 5.485 3.01 5.485 2 7 C0.35 6.67 -1.3 6.34 -3 6 C-2.34 5.34 -1.68 4.68 -1 4 C-1.33 3.34 -1.66 2.68 -2 2 C-1.34 2 -0.68 2 0 2 C0 1.34 0 0.68 0 0 Z " fill="#BD814E" transform="translate(67,27)"/>
<path d="M0 0 C0.33 1.32 0.66 2.64 1 4 C-2.01031744 4.93423645 -2.86650268 5.04449911 -6 4 C-5.67 3.01 -5.34 2.02 -5 1 C-3.35 0.67 -1.7 0.34 0 0 Z " fill="#CF8E55" transform="translate(88,106)"/>
<path d="M0 0 C1.98567708 0.09765625 3.97135417 0.1953125 5.95703125 0.29296875 C6.28703125 0.95296875 6.61703125 1.61296875 6.95703125 2.29296875 C1.01703125 2.78796875 1.01703125 2.78796875 -5.04296875 3.29296875 C-2.04296875 0.29296875 -2.04296875 0.29296875 0 0 Z " fill="#493F3B" transform="translate(88.04296875,100.70703125)"/>
<path d="M0 0 C0.99 0.66 1.98 1.32 3 2 C2.01 2 1.02 2 0 2 C0 2.99 0 3.98 0 5 C1.32 5 2.64 5 4 5 C3.67 6.32 3.34 7.64 3 9 C3 8.34 3 7.68 3 7 C0.03 6.505 0.03 6.505 -3 6 C-1.125 1.125 -1.125 1.125 0 0 Z " fill="#836147" transform="translate(79,88)"/>
<path d="M0 0 C0.99 0 1.98 0 3 0 C2.38722388 2.96175123 1.74627478 4.38058783 0 7 C-1.32 6.67 -2.64 6.34 -4 6 C-3.525625 5.566875 -3.05125 5.13375 -2.5625 4.6875 C-0.76313043 2.97690387 -0.76313043 2.97690387 0 0 Z " fill="#A8AAA2" transform="translate(69,79)"/>
<path d="M0 0 C0.66 0.33 1.32 0.66 2 1 C2 1.66 2 2.32 2 3 C2.66 3 3.32 3 4 3 C3.67 4.32 3.34 5.64 3 7 C1.68 7 0.36 7 -1 7 C-0.67 4.69 -0.34 2.38 0 0 Z " fill="#9C9D95" transform="translate(75,63)"/>
<path d="M0 0 C2.92879371 0.62759865 5.36095629 1.58622659 8 3 C8 3.99 8 4.98 8 6 C5.6875 5.8125 5.6875 5.8125 3 5 C1.1875 2.4375 1.1875 2.4375 0 0 Z " fill="#E2E3D6" transform="translate(63,55)"/>
<path d="M0 0 C0.99 0.33 1.98 0.66 3 1 C2.01 2.485 2.01 2.485 1 4 C0.60612212 6.32387947 0.26513915 8.65793749 0 11 C-2 9 -2 9 -2.25 6.0625 C-2 3 -2 3 0 0 Z " fill="#E89F5C" transform="translate(70,43)"/>
<path d="M0 0 C6.625 -0.25 6.625 -0.25 10 2 C8.375 3.1875 8.375 3.1875 6 4 C2.75 2.625 2.75 2.625 0 1 C0 0.67 0 0.34 0 0 Z " fill="#4B403A" transform="translate(64,103)"/>
<path d="M0 0 C0 0.99 0 1.98 0 3 C-3.63 3 -7.26 3 -11 3 C-11 2.34 -11 1.68 -11 1 C-7.26562152 0.12132271 -3.83225427 -0.08912219 0 0 Z " fill="#674D3C" transform="translate(62,92)"/>
<path d="M0 0 C0.33 0.99 0.66 1.98 1 3 C-1.71182212 5.60334924 -2.89133813 5.99456691 -6.75 6.1875 C-7.8225 6.125625 -8.895 6.06375 -10 6 C-9.46375 5.7525 -8.9275 5.505 -8.375 5.25 C-5.43575748 3.70303025 -2.74245592 1.86985631 0 0 Z " fill="#9B643C" transform="translate(74,88)"/>
<path d="M0 0 C0.99 0.99 1.98 1.98 3 3 C1.68 3.99 0.36 4.98 -1 6 C-1.99 4.68 -2.98 3.36 -4 2 C-2.68 1.34 -1.36 0.68 0 0 Z " fill="#8B5D3B" transform="translate(33,86)"/>
<path d="M0 0 C2.97 0.495 2.97 0.495 6 1 C5.67 1.99 5.34 2.98 5 4 C5 3.34 5 2.68 5 2 C4.01 2 3.02 2 2 2 C1.67 2.66 1.34 3.32 1 4 C1.66 4 2.32 4 3 4 C3 4.66 3 5.32 3 6 C1.68 5.67 0.36 5.34 -1 5 C-0.67 3.35 -0.34 1.7 0 0 Z " fill="#A86C3D" transform="translate(35,80)"/>
<path d="M0 0 C0.99 0.33 1.98 0.66 3 1 C2.6875 2.875 2.6875 2.875 2 5 C1.01 5.66 0.02 6.32 -1 7 C-1.33 5.02 -1.66 3.04 -2 1 C-1.34 0.67 -0.68 0.34 0 0 Z " fill="#AF6431" transform="translate(67,75)"/>
<path d="M0 0 C3 3.75 3 3.75 3 6 C3.99 6 4.98 6 6 6 C6 6.66 6 7.32 6 8 C3.61435923 7.42415568 1.33317216 6.77772405 -1 6 C-0.67 4.02 -0.34 2.04 0 0 Z " fill="#CF7D3F" transform="translate(53,61)"/>
<path d="M0 0 C0.96070434 2.88211302 1.10581883 4.69850044 1.0625 7.6875 C1.05347656 8.49574219 1.04445313 9.30398437 1.03515625 10.13671875 C1.02355469 10.75160156 1.01195313 11.36648437 1 12 C-0.515625 10.72265625 -0.515625 10.72265625 -2 9 C-1.76811536 5.69564394 -1.48929359 2.97858719 0 0 Z " fill="#C5C6BB" transform="translate(66,41)"/>
<path d="M0 0 C1.5 1.375 1.5 1.375 3 3 C3 3.66 3 4.32 3 5 C4.32 5.33 5.64 5.66 7 6 C7 6.99 7 7.98 7 9 C5.68 9 4.36 9 3 9 C0 3.375 0 3.375 0 0 Z " fill="#917C67" transform="translate(79,28)"/>
<path d="M0 0 C1.485 0.99 1.485 0.99 3 2 C5.62531524 2.16713569 5.62531524 2.16713569 8 2 C7.34 3.32 6.68 4.64 6 6 C3.13275314 5.42655063 2.1385485 5.1385485 0 3 C0 2.01 0 1.02 0 0 Z " fill="#B87744" transform="translate(61,18)"/>
<path d="M0 0 C0.33 0.66 0.66 1.32 1 2 C3.01943037 2.61461533 3.01943037 2.61461533 5.375 3 C8.67525619 3.60200113 10.11408973 4.07605982 13 6 C10.44855176 6.93045933 9.25993522 7.08564091 6.640625 6.22265625 C5.85171875 5.83980469 5.0628125 5.45695312 4.25 5.0625 C3.45078125 4.68222656 2.6515625 4.30195312 1.828125 3.91015625 C1.22484375 3.60980469 0.6215625 3.30945313 0 3 C0 2.01 0 1.02 0 0 Z " fill="#956C48" transform="translate(81,108)"/>
<path d="M0 0 C4.16138263 -0.08159574 7.9472484 0.01751476 12 1 C8.86501708 2.85776765 6.62528568 3.20140476 3 3 C3 2.34 3 1.68 3 1 C2.01 0.67 1.02 0.34 0 0 Z " fill="#CF9159" transform="translate(28,100)"/>
<path d="M0 0 C5.94 0.99 5.94 0.99 12 2 C11.67 3.32 11.34 4.64 11 6 C10.67 5.34 10.34 4.68 10 4 C7.65092125 3.31068656 7.65092125 3.31068656 4.9375 2.875 C4.01839844 2.70742187 3.09929687 2.53984375 2.15234375 2.3671875 C1.44207031 2.24601562 0.73179688 2.12484375 0 2 C0 1.34 0 0.68 0 0 Z " fill="#767571" transform="translate(109,89)"/>
<path d="M0 0 C0.625 1.875 0.625 1.875 1 4 C0.34 4.66 -0.32 5.32 -1 6 C-3.125 5.625 -3.125 5.625 -5 5 C-4 2 -4 2 -1.9375 0.8125 C-1.298125 0.544375 -0.65875 0.27625 0 0 Z " fill="#936441" transform="translate(106,89)"/>
<path d="M0 0 C1.32 0.66 2.64 1.32 4 2 C4 3.32 4 4.64 4 6 C1.36 6.99 -1.28 7.98 -4 9 C-4 8.34 -4 7.68 -4 7 C-2.02 6.34 -0.04 5.68 2 5 C1.34 3.35 0.68 1.7 0 0 Z " fill="#5B4E44" transform="translate(25,85)"/>
<path d="M0 0 C1.99097846 2.98646769 2.94124926 5.59687262 4 9 C3.01 9 2.02 9 1 9 C1 7.68 1 6.36 1 5 C0.01 5.33 -0.98 5.66 -2 6 C-1.125 1.125 -1.125 1.125 0 0 Z " fill="#D09560" transform="translate(78,71)"/>
<path d="M0 0 C1.64826111 2.96687001 2.44271087 5.65626525 3 9 C2.01 9.495 2.01 9.495 1 10 C0.01 7.03 -0.98 4.06 -2 1 C-1.34 0.67 -0.68 0.34 0 0 Z " fill="#787671" transform="translate(47,32)"/>
<path d="M0 0 C1.3303125 0.37125 1.3303125 0.37125 2.6875 0.75 C-0.3125 2.75 -0.3125 2.75 -4.3125 2.75 C-4.3125 3.41 -4.3125 4.07 -4.3125 4.75 C-5.6325 4.42 -6.9525 4.09 -8.3125 3.75 C-4.12788462 -0.31153846 -4.12788462 -0.31153846 0 0 Z " fill="#99623A" transform="translate(109.3125,95.25)"/>
<path d="M0 0 C2.64 0.66 5.28 1.32 8 2 C8 2.99 8 3.98 8 5 C7.01 5 6.02 5 5 5 C5 4.34 5 3.68 5 3 C2.03 2.505 2.03 2.505 -1 2 C-0.67 1.34 -0.34 0.68 0 0 Z " fill="#5C534C" transform="translate(111,91)"/>
<path d="M0 0 C2.43055758 2.11693724 3.84507109 3.53521326 4.875 6.625 C4.936875 7.800625 4.936875 7.800625 5 9 C4.34 9.66 3.68 10.32 3 11 C3 9.68 3 8.36 3 7 C2.34 7 1.68 7 1 7 C0.67 4.69 0.34 2.38 0 0 Z " fill="#CE9B6A" transform="translate(101,77)"/>
<path d="M0 0 C0.66 0 1.32 0 2 0 C2 1.32 2 2.64 2 4 C2.66 4.33 3.32 4.66 4 5 C2.02 5.66 0.04 6.32 -2 7 C-2 6.34 -2 5.68 -2 5 C-1.34 5 -0.68 5 0 5 C-0.2784375 4.0409375 -0.2784375 4.0409375 -0.5625 3.0625 C-0.7790625 2.0415625 -0.7790625 2.0415625 -1 1 C-0.67 0.67 -0.34 0.34 0 0 Z " fill="#B17545" transform="translate(77,76)"/>
<path d="M0 0 C0.33 0 0.66 0 1 0 C1.20086443 3.71599191 1.1519437 4.77208445 -1 8 C-0.01 8.33 0.98 8.66 2 9 C0.35 9 -1.3 9 -3 9 C-2.44271087 5.65626525 -1.64826111 2.96687001 0 0 Z " fill="#91613F" transform="translate(89,73)"/>
<path d="M0 0 C2.475 0.99 2.475 0.99 5 2 C4.67 3.65 4.34 5.3 4 7 C3.01 7.33 2.02 7.66 1 8 C1.33 6.02 1.66 4.04 2 2 C1.34 2 0.68 2 0 2 C0 1.34 0 0.68 0 0 Z " fill="#CF783A" transform="translate(52,68)"/>
<path d="M0 0 C0.33 1.32 0.66 2.64 1 4 C-2.81756824 5.37432457 -6.07255329 4.67975039 -10 4 C-10 3.67 -10 3.34 -10 3 C-7.36 3 -4.72 3 -2 3 C-2 2.34 -2 1.68 -2 1 C-1.34 0.67 -0.68 0.34 0 0 Z " fill="#645E58" transform="translate(49,68)"/>
<path d="M0 0 C0.33 0 0.66 0 1 0 C2.51708428 9.41002278 2.51708428 9.41002278 0 14 C-0.33 14 -0.66 14 -1 14 C-1.08333357 9.1666528 -0.95261487 4.76307437 0 0 Z " fill="#C0C1B6" transform="translate(51,51)"/>
<path d="M0 0 C1.32 0 2.64 0 4 0 C4 0.66 4 1.32 4 2 C3.34 2 2.68 2 2 2 C2 3.65 2 5.3 2 7 C1.34 7 0.68 7 0 7 C-1.125 2.25 -1.125 2.25 0 0 Z " fill="#635B52" transform="translate(16,59)"/>
<path d="M0 0 C0.99 0.33 1.98 0.66 3 1 C3 1.66 3 2.32 3 3 C2.34 3 1.68 3 1 3 C0.67 4.98 0.34 6.96 0 9 C-0.33 9 -0.66 9 -1 9 C-1.09765625 2.84765625 -1.09765625 2.84765625 -1 1 C-0.67 0.67 -0.34 0.34 0 0 Z " fill="#DD813E" transform="translate(61,57)"/>
<path d="M0 0 C3 1 3 1 4.1875 3.0625 C4.455625 3.701875 4.72375 4.34125 5 5 C3.35 5.33 1.7 5.66 0 6 C0 4.02 0 2.04 0 0 Z " fill="#C6C8BC" transform="translate(50,34)"/>
<path d="M0 0 C0.66 0 1.32 0 2 0 C4.1875 2.3125 4.1875 2.3125 6 5 C5.67 5.99 5.34 6.98 5 8 C2.5 6.25 2.5 6.25 0 4 C0 2.68 0 1.36 0 0 Z " fill="#655F59" transform="translate(72,15)"/>
<path d="M0 0 C1.65 0 3.3 0 5 0 C5.33 0.99 5.66 1.98 6 3 C4.35 2.67 2.7 2.34 1 2 C1 2.66 1 3.32 1 4 C0.01 4 -0.98 4 -2 4 C-1.34 2.68 -0.68 1.36 0 0 Z " fill="#B88558" transform="translate(63,13)"/>
<path d="M0 0 C3.68754757 0.49831724 5.60490662 1.10067643 8 4 C7.01 4.33 6.02 4.66 5 5 C3.35 3.35 1.7 1.7 0 0 Z " fill="#6A645D" transform="translate(22,109)"/>
<path d="M0 0 C1.33855056 0.78281305 2.67073644 1.57651877 4 2.375 C5.11375 3.03628906 5.11375 3.03628906 6.25 3.7109375 C6.8275 4.13632813 7.405 4.56171875 8 5 C8 5.66 8 6.32 8 7 C2.25 5.25 2.25 5.25 0 3 C0 2.01 0 1.02 0 0 Z " fill="#9A663F" transform="translate(29,91)"/>
<path d="M0 0 C0.66 0.33 1.32 0.66 2 1 C2 2.32 2 3.64 2 5 C0.68 5.33 -0.64 5.66 -2 6 C-2 5.34 -2 4.68 -2 4 C-2.99 3.34 -3.98 2.68 -5 2 C-2.625 0.9375 -2.625 0.9375 0 0 Z " fill="#D59961" transform="translate(65,88)"/>
<path d="M0 0 C1.65 0 3.3 0 5 0 C5 1.65 5 3.3 5 5 C3.68 5 2.36 5 1 5 C0.67 3.35 0.34 1.7 0 0 Z " fill="#B27B4D" transform="translate(45,83)"/>
<path d="M0 0 C1.98 0.495 1.98 0.495 4 1 C3.34 1 2.68 1 2 1 C2 1.66 2 2.32 2 3 C3.32 3.33 4.64 3.66 6 4 C4.35 4.66 2.7 5.32 1 6 C0.34 5.34 -0.32 4.68 -1 4 C-0.625 1.875 -0.625 1.875 0 0 Z " fill="#7A6C60" transform="translate(13,69)"/>
<path d="M0 0 C0.99 0.66 1.98 1.32 3 2 C3 2.99 3 3.98 3 5 C1.35 4.67 -0.3 4.34 -2 4 C-1.34 2.68 -0.68 1.36 0 0 Z " fill="#B97946" transform="translate(66,96)"/>
<path d="M0 0 C0.33 0.66 0.66 1.32 1 2 C1.99 2.33 2.98 2.66 4 3 C3.67 3.99 3.34 4.98 3 6 C2.34 6 1.68 6 1 6 C1 6.66 1 7.32 1 8 C0.34 7.67 -0.32 7.34 -1 7 C-0.67 4.69 -0.34 2.38 0 0 Z " fill="#996037" transform="translate(95,90)"/>
<path d="M0 0 C0.33 0.66 0.66 1.32 1 2 C1.99 2 2.98 2 4 2 C4 2.99 4 3.98 4 5 C1.03 4.505 1.03 4.505 -2 4 C-1.34 2.68 -0.68 1.36 0 0 Z " fill="#DA9252" transform="translate(90,77)"/>
<path d="M0 0 C0.99 0.33 1.98 0.66 3 1 C-0.465 3.97 -0.465 3.97 -4 7 C-3.04065919 3.16263678 -2.76390737 2.40339772 0 0 Z " fill="#67625D" transform="translate(41,58)"/>
<path d="M0 0 C2.0625 0.4375 2.0625 0.4375 4 1 C4 1.66 4 2.32 4 3 C4.99 3.33 5.98 3.66 7 4 C5.02 4.33 3.04 4.66 1 5 C1 4.01 1 3.02 1 2 C0.34 1.67 -0.32 1.34 -1 1 C-0.67 0.67 -0.34 0.34 0 0 Z " fill="#C2C3B8" transform="translate(58,36)"/>
<path d="M0 0 C0.33 0.66 0.66 1.32 1 2 C3.01669827 3.13350534 3.01669827 3.13350534 5 4 C1.625 4.1875 1.625 4.1875 -2 4 C-2.66 3.01 -3.32 2.02 -4 1 C-2.68 0.67 -1.36 0.34 0 0 Z " fill="#564E47" transform="translate(46,116)"/>
<path d="M0 0 C0.66 0.33 1.32 0.66 2 1 C1.01 2.98 0.02 4.96 -1 7 C-1.66 7 -2.32 7 -3 7 C-3.1875 4.625 -3.1875 4.625 -3 2 C-2.01 1.34 -1.02 0.68 0 0 Z " fill="#D39357" transform="translate(59,113)"/>
<path d="M0 0 C1.32 0.66 2.64 1.32 4 2 C1 4 1 4 -1.6875 3.625 C-2.450625 3.41875 -3.21375 3.2125 -4 3 C-2.68 2.01 -1.36 1.02 0 0 Z " fill="#C18A58" transform="translate(22,93)"/>
<path d="M0 0 C1.32 0.33 2.64 0.66 4 1 C4 2.32 4 3.64 4 5 C3.01 5 2.02 5 1 5 C0.67 3.35 0.34 1.7 0 0 Z " fill="#B97642" transform="translate(83,93)"/>
<path d="M0 0 C2.97 0.495 2.97 0.495 6 1 C6 1.99 6 2.98 6 4 C3.69 3.34 1.38 2.68 -1 2 C-0.67 1.34 -0.34 0.68 0 0 Z " fill="#805B40" transform="translate(36,92)"/>
<path d="M0 0 C0.28875 0.598125 0.5775 1.19625 0.875 1.8125 C2.04742026 4.19327792 2.04742026 4.19327792 4 7 C4 7.99 4 8.98 4 10 C3.34 10 2.68 10 2 10 C-0.09350689 6.5980513 -0.17942163 3.94727588 0 0 Z " fill="#87857F" transform="translate(22,78)"/>
<path d="M0 0 C3.3 0.66 6.6 1.32 10 2 C10 2.33 10 2.66 10 3 C6.37 3.33 2.74 3.66 -1 4 C-0.67 2.68 -0.34 1.36 0 0 Z " fill="#645C56" transform="translate(84,82)"/>
<path d="M0 0 C0.33 0.66 0.66 1.32 1 2 C2.97888961 2.72693904 4.97954558 3.39816251 7 4 C6.67 4.66 6.34 5.32 6 6 C5.401875 5.835 4.80375 5.67 4.1875 5.5 C1.88655664 4.8885876 1.88655664 4.8885876 -1 5 C-0.67 3.35 -0.34 1.7 0 0 Z " fill="#857F76" transform="translate(48,47)"/>
<path d="M0 0 C0.33 0.99 0.66 1.98 1 3 C1.99 3.33 2.98 3.66 4 4 C1.69 4.66 -0.62 5.32 -3 6 C-3 5.01 -3 4.02 -3 3 C-2.34 3 -1.68 3 -1 3 C-0.67 2.01 -0.34 1.02 0 0 Z " fill="#6F5A4A" transform="translate(48,9)"/>
<path d="M0 0 C2.0625 1.6875 2.0625 1.6875 4 4 C3.75 6.75 3.75 6.75 3 9 C1.35173889 6.03312999 0.55728913 3.34373475 0 0 Z " fill="#807A72" transform="translate(69,8)"/>
</svg>
